<?xml version="1.0" encoding="UTF-8"?>
<svg id="Calque_1" data-name="Calque 1" xmlns="http://www.w3.org/2000/svg" viewBox="0 0 141.73 141.73">
  <defs>
    <style>
      .cls-1 {
        fill: #e5e5e5;
      }

      .cls-2 {
        fill: #fff;
      }
    </style>
  </defs>
  <path class="cls-1" d="M75.53,7.5s.38.05.43.25c1.46,5.97,1.15,11.73,1.85,17.73.04.37.15.75.52.39,1.56-3.02,2.88-6.22,4.48-9.21.77-1.44,1.72-3.21,2.68-4.69.79-1.21,3.77-5.48,5.06-5.69l.73.23c1.15,1.42-.34,8.98-.78,10.99-.9,4.05-2.6,7.96-3.27,12.03.45.12.52-.19.79-.39,4.12-3.15,7.51-7.45,12.05-10.44,12.49-8.23,6.81,3.83,3.33,9.61-1.77,2.94-4.69,6.06-6.24,8.93-.17.32-.35.5-.25.92,3.94-1.07,7.87-2.33,11.87-3.17,3.51-.74,8.41-1.82,11.77-.19,5.09,2.47-2.04,8.43-4.28,10.3-4.05,3.4-8.25,5.2-12.36,8.04-.3.21-.57.21-.46.71,3.76.18,7.61.53,11.34,1.08,2.3.34,5.07.73,7.28,1.35,11.93,3.36-3.86,5.76-7.51,6.2-3.28.39-6.67.33-9.94.78-.39.05-.65,0-.91.4,4.71,2.77,9.81,5,14.2,8.29,1.47,1.1,3.63,2.78,4.58,4.31.65,1.05,1.14,1.71.18,2.72-1.78,1.87-9.14.86-11.7.43-4.11-.69-8.12-2.29-12.24-2.8-.44.38,2.31,2.91,2.61,3.28,2.98,3.57,9.79,11.82,10.14,16.28.11,1.34-.75,1.88-2.04,1.78-3.3-.24-10.73-5.27-13.57-7.36-.62-.46-5.71-4.92-6.04-4.55.04,2.02.96,4.04,1.44,6.01,1.1,4.51,3.4,13,1.57,17.27-1.16,2.71-3.05,1.59-4.85.13-6.08-4.94-7.76-11.26-11.81-17.22-.12-.18-.58-.81-.74-.7-1.12,6.67-1.03,14.09-3.47,20.47-2.61,6.81-4.51-1.24-5.09-4.2-1.05-5.3-1.18-10.9-1.65-16.27-2.28,2.8-3.79,6.4-5.77,9.48-1.56,2.42-6.16,9.06-9.07,9.56-1.99.34-2.51-1.27-2.68-2.95-.58-5.76,1.22-11.08,2.35-16.61l.52.27c-.43-1.8.87-3.44.79-5.23-.16-.19-1.73,1.12-1.95,1.31-3.97,3.4-9.63,8.76-14.2,10.96-.17.08-2.66.79-2.8.79-.37,0-.77-.43-1.13-.56,1.23-7.15,6.99-12.34,11.19-17.87.25-.33,1.58-1.96,1.31-2.21-3.19.56-6.23,1.78-9.41,2.49-3.94.87-8.86,1.92-12.82,1.07-1.42-.3-3.25-1.45-2.87-3.12.04-.19.4-.13.46-.31.03-.08-.19-.43-.09-.65,2.8-5.75,12.21-10.14,17.39-13.49.28-.18,1.37-.73,1.07-1.15-5.27-1.12-10.94-2.09-15.95-4.07-3.14-1.24-10.55-4.5-4.47-7.59,1.17-.59,4.11-1.38,5.44-1.62,5.25-.96,10.94-.74,16.28-1.11-.03-1.06-1.38-1.2-2.07-1.72-3.36-2.48-13.69-10.45-14.81-14.23-.19-.65-.27-1.82.04-2.39,1.84-1.38,6.26-.58,8.43-.06,5.35,1.28,10.28,4.11,15.47,5.84.11-.43-.09-.61-.25-.92-2.81-5.3-6.75-9.55-9.09-15.5-3.65-9.27,3.02-4.72,6.86-1.62,4.08,3.29,7.21,7.52,11.12,10.98,0-.28.15-.53.13-.82-.26-3.11-1.83-7.37-2.4-10.64-.69-3.96-1.53-8.5-.03-12.3.58-.12,1.22-.13,1.78.09,2.07.83,6.24,8.45,7.38,10.67,1.5,2.93,2.7,6.06,4.01,9.08l.65-.18c.83-5.73,1.54-12.73,3.54-18.13s4.12-6.69,6.09-.33c.08.27-.2.64-.14.8ZM75.2,40.51c-.7-3.12-2.54-6.9-6.3-6.16-3.75.74-2.7,4.51-1.82,7.21-4.21-2.2-7.4,1.7-3.11,4.29,3.37,2.03,11.38,5.06,15.21,4.29,1.88-.38,3.92-3.22,2.16-4.4-.36-.24-.95-.08-.93-.51,2.47-1.4,6.71-4.01,2.27-6.07-3.35-1.55-4.68-.47-7.5,1.35ZM62.38,53.59c-.37-.45,2.53-7.68-1.92-4.93-1.6.99-2.38,3.13-2.53,4.93l-3.13-1.33.25-.5c-1.26.35-5.1-1.32-5.49.66-.6,3.09,2.89,4.19,4.96,5.49-3.85.89-5.3,4.18.06,3.46,2.97-.4,9.48-3.21,9.86-6.61l-1.03-1.32-1.04.15ZM86.45,56.2c1.26-2.46,2.04-5.03.5-7.58-1.92.51-3.04,2.41-3.65,4.18-1.49-1.96-3.33,0-3.41,1.98-.11,2.89,1.98,5.35,2.1,7.97l.48-.23c.21,1.12,3.17,4.76,4.09,2.84.77-1.6-1.14-3.7-.91-3.92,2.46.55,6.42,2.06,7.76-.91-.93-3.02-4.3-3.48-6.97-4.32ZM72.85,55.68c-.1-2.27-1.46-7.78-4.58-4.97-2.11,1.9-.65,6.27-.91,6.54-2.38-.28-3.6.09-3.42,2.74.13,1.96,3.88,3.59,5.51,4.32-1.6,1-.91,2.2-1.05,3.79s-.38,3.06-.52,4.58l-5.9-11.75c-.56-.83-1.67-1.66-2.45-.63l8.47,17.54,1.73-.62.51-12.38c1.59.36,3.98.96,5.37-.25.87-.76,1.91-3.79.38-4.32,1.46-1.31,2.59-2.91,3.33-4.71-2.02-2.94-4.42-2.37-6.47.13ZM57.8,65.62c-1.29-.24-3.21.18-4.58,0-.1,3.02,1.18,6.69,3.84,8.32.45.28,2.17,1.09,2.57,1.09h4.05c-.38-1.09-1.1-2.96-2.09-3.4-.06-.34-.07-.67.38-.51.63.23.79,1.09,1.45,1.04-.32-1.91-1.13-4.08-2.79-5.19-.34-.23-2.55-1.3-2.83-1.35ZM84.6,68.25c-6.67-1.43-13.61,1.96-14.37,9.14,1.61-1.21,3.12-2.63,4.89-3.61.23-.13.65-.58.86-.19l-4.1,3.61-1.91,4.1c8.73,1.85,15.05-4.52,14.63-13.06Z"/>
  <path class="cls-2" d="M105.48,120.1c8.42-1.07,14.65,7.76,10,14.97-5.61,8.71-19.2,4.4-18.31-6.28.35-4.17,4.17-8.17,8.31-8.69ZM105.74,123.24c-7.76,1.16-6.79,14.74,2.75,13.21,7.62-1.22,6.72-14.62-2.75-13.21Z"/>
  <path class="cls-2" d="M40.41,132.32h-4.71v-3.14h7.98l.34.59c-.21,3.02-.56,5.47-2.85,7.63-4.75,4.49-13,2.11-15.16-3.9-3.94-10.91,10.17-18.72,16.99-9.46l-2.2,2.25c-3.55-5.57-11.88-3.34-12.17,3.29-.31,7.08,9.61,10.07,11.77,2.74Z"/>
  <path class="cls-2" d="M127.9,120.29c6.52.77,7.74,8.82,1.7,11.11l5.75,7.98h-4.05l-5.1-7.59h-3.66v7.59h-3.14v-19.09c2.69.23,5.87-.31,8.5,0ZM127.64,123.43c-1.54-.22-3.5.16-5.1,0v5.49h4.84c1.1,0,2.62-.98,2.76-2.21.21-1.9-.6-3.01-2.5-3.28Z"/>
  <path class="cls-2" d="M60.29,120.29v3.14h-9.94l-.26,3.92h9.94v3.14h-9.68v5.36c0,.08-.33.2-.26.39h10.2v3.14h-13.34v-19.09h13.34Z"/>
  <path class="cls-2" d="M72.32,139.38v-19.09h6.15c7.4,0,11.06,9.77,6.78,15.41-1.28,1.69-4.38,3.68-6.52,3.68h-6.41ZM75.46,136.25c2.87.2,5.78-.37,7.37-2.96,2.15-3.49.57-8.33-3.45-9.47-1.4-.4-3.93-1.13-3.93.79v11.64Z"/>
  <path class="cls-2" d="M6.66,139.38l9.42-20.4,9.41,20.4-3.67-.12-1.79-4.17-7.84-.13-1.87,4.41h-3.66ZM18.44,131.8l-2.1-5.23c-.41-.31-2.32,4.83-2.61,5.23h4.71Z"/>
  <polygon class="cls-2" points="91.67 127.87 89.34 127.07 89.32 126.72 92.19 119.61 95.07 120.68 91.67 127.87"/>
  <path class="cls-2" d="M75.2,40.51c2.82-1.82,4.14-2.9,7.5-1.35,4.45,2.05.2,4.66-2.27,6.07-.03.42.56.26.93.51,1.76,1.19-.29,4.02-2.16,4.4-3.83.78-11.85-2.26-15.21-4.29-4.29-2.58-1.1-6.49,3.11-4.29-.88-2.7-1.93-6.47,1.82-7.21,3.76-.74,5.6,3.04,6.3,6.16Z"/>
  <path class="cls-2" d="M72.85,55.68c2.05-2.5,4.44-3.07,6.47-.13-.74,1.8-1.87,3.41-3.33,4.71,1.53.53.48,3.56-.38,4.32-1.39,1.21-3.78.62-5.37.25l-.51,12.38-1.73.62-8.47-17.54c.78-1.03,1.88-.2,2.45.63l5.9,11.75c.15-1.52.39-3.06.52-4.58s-.55-2.78,1.05-3.79c-1.63-.74-5.38-2.36-5.51-4.32-.18-2.65,1.04-3.03,3.42-2.74.27-.27-1.2-4.65.91-6.54,3.13-2.81,4.48,2.71,4.58,4.97Z"/>
  <path class="cls-2" d="M84.6,68.25c.41,8.54-5.9,14.91-14.63,13.06l1.91-4.1,4.1-3.61c-.21-.39-.63.06-.86.19-1.78.98-3.28,2.39-4.89,3.61.76-7.18,7.7-10.57,14.37-9.14Z"/>
  <path class="cls-2" d="M86.45,56.2c2.68.85,6.05,1.3,6.97,4.32-1.34,2.98-5.3,1.47-7.76.91-.22.22,1.68,2.32.91,3.92-.92,1.91-3.88-1.72-4.09-2.84l-.48.23c-.13-2.62-2.21-5.07-2.1-7.97.08-1.98,1.91-3.94,3.41-1.98.6-1.77,1.73-3.67,3.65-4.18,1.53,2.55.75,5.12-.5,7.58Z"/>
  <path class="cls-2" d="M62.38,53.59l1.04-.15,1.03,1.32c-.38,3.41-6.89,6.21-9.86,6.61-5.37.72-3.92-2.57-.06-3.46-2.07-1.3-5.56-2.4-4.96-5.49.38-1.98,4.23-.31,5.49-.66l-.25.5,3.13,1.33c.15-1.8.93-3.94,2.53-4.93,4.45-2.76,1.55,4.48,1.92,4.93Z"/>
  <path class="cls-2" d="M57.8,65.62c.28.05,2.49,1.12,2.83,1.35,1.66,1.11,2.47,3.28,2.79,5.19-.66.05-.82-.81-1.45-1.04-.45-.16-.44.17-.38.51.98.44,1.71,2.32,2.09,3.4h-4.05c-.4,0-2.12-.82-2.57-1.09-2.66-1.63-3.94-5.3-3.84-8.32,1.37.18,3.29-.24,4.58,0Z"/>
</svg>