<?xml version="1.0" encoding="UTF-8"?>
<svg id="Calque_1" data-name="Calque 1" xmlns="http://www.w3.org/2000/svg" viewBox="0 0 141.73 141.73">
  <defs>
    <style>
      .cls-1 {
        fill: none;
      }

      .cls-2 {
        fill: #e5e5e5;
      }

      .cls-3 {
        fill: #fff;
      }
    </style>
  </defs>
  <path class="cls-2" d="M70.57,139.94c-9.31,0-18.34-1.82-26.85-5.42-4.09-1.73-8.03-3.87-11.72-6.36-3.65-2.47-7.09-5.3-10.21-8.42-3.12-3.12-5.95-6.55-8.42-10.21-2.49-3.69-4.63-7.63-6.36-11.72-3.6-8.5-5.42-17.54-5.42-26.85s1.82-18.34,5.42-26.85c1.73-4.09,3.87-8.03,6.36-11.72,2.47-3.65,5.3-7.09,8.42-10.21,3.12-3.12,6.55-5.95,10.21-8.42,3.69-2.49,7.63-4.63,11.72-6.36,8.5-3.6,17.54-5.42,26.85-5.42s18.34,1.82,26.85,5.42c4.09,1.73,8.03,3.87,11.72,6.36,3.65,2.47,7.09,5.3,10.21,8.42s5.95,6.55,8.42,10.21c2.49,3.69,4.63,7.63,6.36,11.72,3.6,8.5,5.42,17.54,5.42,26.85s-1.82,18.34-5.42,26.85c-1.73,4.09-3.87,8.03-6.36,11.72-2.47,3.65-5.3,7.09-8.42,10.21s-6.55,5.95-10.21,8.42c-3.69,2.49-7.63,4.63-11.72,6.36-8.5,3.6-17.54,5.42-26.85,5.42ZM70.57,6.24c-8.74,0-17.22,1.71-25.2,5.09-3.84,1.62-7.53,3.63-10.99,5.97-3.43,2.32-6.65,4.98-9.58,7.91-2.93,2.93-5.59,6.15-7.91,9.58-2.34,3.46-4.35,7.16-5.97,10.99-3.37,7.98-5.09,16.46-5.09,25.2s1.71,17.22,5.09,25.2c1.62,3.84,3.63,7.53,5.97,10.99,2.32,3.43,4.98,6.65,7.91,9.58,2.93,2.93,6.15,5.59,9.58,7.91,3.46,2.34,7.16,4.35,10.99,5.97,7.98,3.37,16.46,5.09,25.2,5.09s17.22-1.71,25.2-5.09c3.84-1.62,7.53-3.63,10.99-5.97,3.43-2.32,6.65-4.98,9.58-7.91,2.93-2.93,5.59-6.15,7.91-9.58,2.34-3.46,4.35-7.16,5.97-10.99,3.37-7.98,5.09-16.46,5.09-25.2s-1.71-17.22-5.09-25.2c-1.62-3.84-3.63-7.53-5.97-10.99-2.32-3.43-4.98-6.65-7.91-9.58-2.93-2.93-6.15-5.59-9.58-7.91-3.46-2.34-7.16-4.35-10.99-5.97-7.98-3.37-16.46-5.09-25.2-5.09Z"/>
  <path class="cls-2" d="M29.69,70.98c0-22.58,18.3-40.88,40.88-40.88,22.58,0,40.88,18.3,40.88,40.88,0,22.58-18.3,40.88-40.88,40.88-22.58,0-40.88-18.3-40.88-40.88h0ZM43.3,43.7c-6.98,6.98-11.3,16.62-11.3,27.27,0,10.65,4.31,20.29,11.3,27.27,6.98,6.98,16.62,11.3,27.27,11.3,10.65,0,20.29-4.32,27.27-11.3,6.98-6.98,11.3-16.62,11.3-27.27,0-10.65-4.32-20.29-11.3-27.27-6.98-6.98-16.62-11.3-27.27-11.3-10.66,0-20.29,4.31-27.27,11.3h0Z"/>
  <path class="cls-3" d="M29.71,70.97h40.88V30.1h0c-22.58,0-40.88,18.3-40.88,40.88h0Z"/>
  <path class="cls-3" d="M111.44,70.95h-40.88v40.9h0c22.58,0,40.88-18.33,40.88-40.9h0Z"/>
  <path class="cls-2" d="M117.94,33.17l-9.11,6.03,4.31-8.38c-1.12-1.32-2.82-2.72-2.82-2.72l-8.32,4.18,6.1-8.95c-1.01-.85-2.19-1.56-3.31-2.41l-8.54,13.32s1.62.95,3.6,2.78l8.84-4.57-4.63,8.7c1.04,1.1,1.97,2.43,2.93,3.62l13.45-8.32s-.82-1.29-2.51-3.27h0ZM71.52,24.09l4.1-9.06.37,11.48c1.65.07,4.09.69,4.09.69l-.74-16.26c-3.09-.45-5.56-.57-5.56-.57l-3.95,9.82-3.86-9.75s-2.55.25-5.64.7l-.74,16.39s2.44-.71,4.09-.78l.35-11.66,4.11,8.99h3.37,0ZM36.82,29.42v-.02c.41-1.49-.06-3.08-1.2-4.12-1.66-1.52-4.14-1.57-6.78,1.07,0,0-4.87,4.89-8.17,9.67l11.86,10.81,8.93-10.02c1.94-2.15,2.02-5.19.24-6.81-1.33-1.21-3.26-1.38-4.87-.59h0ZM25.39,35.23c4.2-5.2,5.88-6.62,5.88-6.62,1.1-.95,1.92-1.04,2.58-.43.66.6.58,1.77-.19,2.61l-5.94,6.57-2.34-2.13ZM38.73,34.79l-6.23,6.92-2.34-2.14,6.23-6.92c.76-.84,1.91-1.05,2.55-.46s.55,1.75-.21,2.59h0Z"/>
  <g>
    <circle class="cls-1" cx="70.5" cy="70.91" r="60.63"/>
    <circle class="cls-1" cx="70.64" cy="70.91" r="44.73"/>
  </g>
</svg>