<?xml version="1.0" encoding="UTF-8"?>
<svg id="layer" xmlns="http://www.w3.org/2000/svg" viewBox="0 0 600.2 600.2">
  <defs>
    <style>
      .cls-1 {
        fill: #f6f6f6;
      }

      .cls-2 {
        fill: #e5e5e5;
      }
    </style>
  </defs>
  <g transform="translate(0, 250)">
    <path class="cls-2" d="M446.4,49.3c0,3.2-2.6,5.8-5.8,5.8s-5.8-2.6-5.8-5.8,2.6-5.8,5.8-5.8,5.8,2.6,5.8,5.8h0ZM440.7,8.9l27.8,26.8v52.3h-15.2v-40.3c0-8.3-5.6-13-12.5-13-8,0-12.7,5.4-12.7,13v40.3h-15.2v-52.3l27.8-26.8h0Z"/>
    <path class="cls-1" d="M39.6,89.2C17.3,89.2,0,70.4,0,46.5S17.3,3.8,39.6,3.8c18.5,0,32.1,10.5,37.2,27.3h-16.8c-3.7-7.4-10.9-13-20.4-13-13.4,0-24,13-24,28.4s10.6,28.5,24,28.5c9.3,0,16.7-5.8,20.4-13.2h16.7c-5.2,16.7-18.9,27.4-37.1,27.4ZM146,87.8h-14.8v-6.5c-4.7,5-11.2,7.8-18.6,7.8-15.8,0-28.9-13.7-28.9-31.6s13.1-31.7,28.9-31.7c7.4,0,13.9,2.8,18.6,7.8v-6.5h14.8c0-.1,0,60.7,0,60.7ZM114.9,40.1c-8.6,0-15.6,7.6-15.6,17.5s7,17.1,15.6,17.1,15.5-7.7,15.5-17.1-6.9-17.5-15.5-17.5ZM253.2,87.8h-15.5v-35.5c0-3.5-1.2-12-11.3-12-6.9,0-11.8,5.2-11.8,12v35.5h-15.7v-35.5c0-3.5-1.1-12-11.3-12-6.8,0-11.7,5.2-11.7,12v35.5h-15.7V27h14.9v5.9c3.8-4.6,9.1-7.4,15.7-7.4,7.5,0,13.9,3.2,18.1,8.6,4.4-5.3,10.7-8.6,18.5-8.6,16.2,0,25.7,10.9,25.7,26.8.1,0,.1,35.5.1,35.5ZM300.3,89.1c-6.9,0-13.2-2.7-17.8-7.2v32.9h-15.7V27h15v6.4c4.7-4.8,11.2-7.8,18.5-7.8,15.9,0,28.8,13.7,28.8,31.6.1,18.1-12.9,31.9-28.8,31.9ZM298.1,40.1c-8.6,0-15.5,7.7-15.5,17.1s6.9,17.3,15.5,17.3,15.5-7.4,15.5-17.3-6.9-17.1-15.5-17.1ZM398.5,87.8h-14.8v-6.5c-4.7,5-11.2,7.8-18.6,7.8-15.8,0-28.8-13.7-28.8-31.6s13.1-31.7,28.8-31.7c7.4,0,13.9,2.8,18.6,7.8v-6.5h14.8v60.7ZM367.4,40.1c-8.6,0-15.5,7.6-15.5,17.5s6.9,17.1,15.5,17.1,15.5-7.7,15.5-17.1c.1-9.7-6.9-17.5-15.5-17.5ZM530.2,87.8h-15.5V0h15.5v87.8ZM499.3,87.8h-15.5V30.4h15.5v57.4ZM480.7,11C480.7,4.9,485.6,0,491.5,0s10.8,4.9,10.8,11-4.7,10.7-10.8,10.7c-5.9,0-10.8-4.8-10.8-10.7ZM600.1,57.2c0-18.8-13.3-31.9-29.8-31.9s-29.4,13.3-29.8,31h0v2c.9,17.8,13.6,30.8,29.8,30.7,12-.1,21.8-6,26.7-16.1l-12.2-4.5c-2.7,4.8-8,7.4-13.6,7.4-8.6,0-15.1-6.8-15.9-15h44.9v-3.6h-.1ZM555.8,49c1.8-6.8,7.2-11.6,14.7-11.6,7,0,12.6,5,14.6,11.6h-29.3Z"/>
  </g>
</svg>