<?xml version="1.0" encoding="UTF-8"?>
<svg id="Calque_1" data-name="Calque 1" xmlns="http://www.w3.org/2000/svg" viewBox="0 0 141.73 141.73">
  <defs>
    <style>
      .cls-1 {
        fill: #e5e5e5;
      }

      .cls-2 {
        fill: #fff;
      }
    </style>
  </defs>
  <polygon class="cls-2" points="28.65 53.34 28.67 68.6 15.54 76.24 15.52 60.98 28.65 53.34"/>
  <path class="cls-2" d="M68.27,69.82s.11.09.14.11c.06.05.11.09.16.16-.24.3-.5.61-.78.86-.11.1-.27.15-.38.26-.06.05-.09.14-.15.19-.11.1-.44.24-.6.28-.05-.07-.14-.17-.08-.31.06-.12.25-.23.35-.33.38-.44.48-.81,1.05-1.09.07-.03.19-.14.29-.13"/>
  <path class="cls-2" d="M128.72,73.68c.45.17-.68.92-.86,1.03-.01-.07-.06-.18-.05-.27.03-.22.4-.79.62-.82.07,0,.21.02.29.05M136.07,71.64c-.24.12-.45.28-.59.49-.2.31-.37.67-.52,1-.28.59-.86,2.44-1.61,2.36,0,0-.04-.01-.05-.02-.21-.06-.05-1.03-.18-1.34-.22-.02-.42-.08-.64,0-.18.07-.35.26-.49.38-.21.18-.44.33-.69.46.04-.17.06-.35.14-.49.08-.15.27-.43.13-.65,0-.01-.06,0-.06-.02-.07-.08-.16-.19-.27-.21-.22-.03-.36.14-.49.24-.23.17-.39.42-.61.61-.46.4-1,.84-1.61,1.09-.17.07-.5.2-.7.14-.08-.02-.13-.14-.13-.14.05-.12.06-.11.16-.18.22-.14.41-.28.64-.43.48-.31,1.67-1.03,1.07-1.82-.11-.14-.25-.34-.45-.38-.58-.12-1.46.55-1.75.89-.22.27-.42.64-.55.99-.1.25-.1.62-.3.76-.11.08-.24.12-.41.06-.61-.21.22-1.24-.07-1.64-.25-.35-.86.11-1.02.26-.19.17-.36.42-.57.57-.12.08-.21.17-.32.27-.03.03-.04.07-.06.1-.04-.02-.08-.03-.1-.03.02-.25.1-.53.17-.78.05-.16.19-.28.16-.51-.02-.1-.12-.21-.19-.27-.14-.11-.32-.03-.46.05-.5.29-.84.7-1.29,1.04l.05-.78s-.01-.09-.02-.11c-.06-.25-.15-.32-.37-.41-.12-.05-.31-.14-.46-.14-.46-.01-1.43.6-1.72.83-.05.03-.09.05-.13.08-.2.16-.62.55-.7.8-.04.14,0,.25.02.36.01.08-.02.18,0,.26.03.08.15.09.26.09,0,0,.13.02.19-.02,0,0,.52-.65.53-.67.02-.05-.02-.13,0-.18,0,0,.04,0,.05,0,.04-.01.08-.09.11-.11.17-.11.31-.19.49-.29.14-.07.36-.3.57-.26.3.06.04,1.46-.01,1.77-.04.2-.21.94.3.73.09-.04.24-.23.32-.3,0-.01.02-.04.03-.05.06-.05.11-.08.16-.13.05-.05.11-.09.16-.15.05-.05.1-.1.16-.16.1-.1.19-.21.27-.32.08-.1.16-.23.25-.32.09-.09.17.05.14.21-.07.35-.18.62-.06.99.02.07.02.16.08.19.1.04.23-.05.3-.08.55-.26.98-.69,1.4-1.09.02.04.1.1.11.16.02.11-.02.22-.03.3-.03.26.14.56.32.65.32.17.74.03,1.07-.11.09-.04.21-.16.3-.18.18-.03.26.38.45.45.08.03.3,0,.43,0-.04-.01.08.01.03.02.2-.09.38-.1.6-.19.16-.07.31-.19.46-.26.58-.28,1.13-.54,1.64-.88,0,0,.06.03.06.03-.03.22-.18.83-.09,1.1.02.08.13.09.2.09,0,0,.08.02.13,0,.19-.06.38-.26.53-.38.17-.15.39-.29.54-.46.09-.11.21-.31.35-.37.04-.02.14-.04.19-.02,0,0,.02.01.03.02-.09.38-.16,1,.23,1.19.01,0,.03,0,.05,0,.08.02.07.03.16.03.65.04,1.35-.59,1.78-.91.04.31.18.52.34.72.06.08.11.19.19.25.54.44,1.38-.05,1.94-.27.02,0,.04-.01.05-.02.23-.1.82-.33.96-.48.08-.09.13-.2.11-.35-.21-.06-.44.03-.59.11-.61.31-.9.54-1.48.05-.21-.18-.32-.47-.27-.76.02-.18.12-.89.22-.97.12-.1.51-.1.72-.13.87-.1,1.62-.25,2.45-.48.35-.09.75-.13.81-.51-.03-.02-.08-.07-.11-.08-.24-.07-.65.02-.83.05-.76.11-1.5.14-2.26.31-.21.05-.38.14-.56.21.09-.24.21-.56.36-.8.14-.22.34-.39.48-.62-.08-.12-.15-.28-.34-.29-.16,0-.29.09-.4.15"/>
  <path class="cls-2" d="M112.22,73.67c-.05.17-.15.24-.19.38-.04.11-.03.25-.08.35-.05.09-.15.14-.21.21-.28.33-.56.84-1.03.96,0-.11.03-.2.06-.29.09-.27.27-.55.43-.8.25-.38.54-.62.96-.83l.06.02ZM116.95,70.81s-.02.01-.03.02c-.03.02-.11.04-.16.08-.33.3-.51.75-.83,1.07-.14.14-.27.11-.43.06-.11.18-.37.23-.46.43-.16.38-.08.51.19.67-.11.51-.5,1-.81,1.37-.33.39-.75.73-1.18,1.02-.18.12-.43.42-.44.03-.03-.64.17-1.04.38-1.47.07-.15.11-.31.21-.45.09-.14.26-.3.33-.46.02-.03,0-.06.02-.09-.1-.02-.27,0-.35-.05-.11-.06-.14-.18-.27-.24-.33-.15-.73-.07-1.03.1-.75.41-1.37,1.11-1.86,1.78-.08.11-.19.21-.25.34-.13.27-.73,1.94.16,1.74.31-.07.91-.63,1.15-.83.05-.04.32-.28.35-.29.06-.02.12.04.09.03,0,.03.04.17,0,.19.02,0,.04.07,0,.07.02.29.09.81.45.83.65.03,1.78-1.05,2.2-1.39l.05.02c.04.24,0,.53.1.72.03.07.11.1.17.14.53.35,1.49-.38,1.9-.62.15-.09.27-.22.46-.24,0,.21-.05.34-.03.62.02.31.2.79.54.67.14-.05.32-.19.45-.27.05-.03.1-.12.16-.14.08-.03.16,0,.19-.06.03-.05-.18-.55-.19-.69-.06-.68.26-1.2.54-1.64.03-.05.06-.13.06-.13,0-.01,0-.04,0-.05-.06-.15-.32-.27-.54-.21-.08.02-.12.16-.19.19-.05.03-.11.04-.16.06-.09.05-.11.07-.16.16-.1.19-.26.39-.42.53-.17.14-2.02,1.69-1.78.51.1-.49.16-.89.35-1.3.04-.09.23-.39.3-.42.2-.07.55,0,.8,0h.06c.43-.04.87-.03,1.34-.12.24-.05.57-.14.7-.31.04-.05.04-.12.08-.18.05-.06.25-.07.14-.21-.1-.13-1.06-.25-1.48-.2-.22.02-.51.09-.73.03-.09-.03-.17-.09-.27-.07.26-.41.55-.76.81-1.16-.07-.11-.22-.05-.29-.1-.09-.05-.19-.13-.3-.11,0,0-.05,0-.06.02"/>
  <path class="cls-2" d="M92.84,74.15c-.49.59-1.1,1.01-1.65,1.53-.69-.32.82-1.87,1.41-1.9.3-.01.38.19.24.36M95.07,71.18c-.5.57-.99,1.14-1.43,1.77-1.04-.31-1.61.23-2.24.76-.44.37-1.08,1.03-1.24,1.64-.1.36-.05.7,0,1.05.06.39.34.33.62.25.83-.23,1.51-.94,2.01-1.56.25.18-.14,1.07.38,1.29.19.08.32.06.48-.02.28-.13.55-.31.8-.48.21-.15.61-.59.84-.61-.04.4-.14.97.22,1.15.59.29,1.2-.65,1.63-.83.11.51.44,1.23,1.2.99.46-.15,1.4-.75,1.48-1.19-.14-.12-.16-.15-.32-.08-.21.09-.47.25-.7.29-.2.03-.33-.06-.43-.17-.21-.24-.23-.68-.08-1.04.05-.11.2-.25.21-.38.01-.14-.17-.34-.29-.35-.06,0-.15.04-.19.05,0,0-.13.06-.19.13-.44.47-.78,1.12-1.37,1.43-.11.06-.19.15-.21-.06,0,0-.01-.07,0-.11.06-.31.18-.63.32-.88.1-.18.24-.36.36-.54.03-.04.07-.03.11-.06.12-.11.25-.32.24-.51-.03.02,0-.03,0-.03-.03-.06-.13-.08-.19-.11-.48-.2-.98.47-1.18.77-.16.24-.32.49-.51.7-.15.17-1.24,1.22-1.48,1.04-.05-.04-.06-.16-.08-.24-.1-.4.04-.72.18-1.08.12-.31.19-.6.36-.86.14-.22.37-.4.53-.61.15-.21.22-.46.38-.65.04-.05.12-.06.16-.11.1-.14.15-.27.25-.4.14-.17.35-.3.48-.49.08-.13.12-.27.19-.42-.04-.01-.55-.14-.62-.12-.26.04-.51.52-.67.7"/>
  <path class="cls-2" d="M113.55,70.45c.46-.04,1.31.19,1.37.62.04.26-.2.28-.38.27-.01.03-.01.15-.02.18-.02.05-.45.38-.54.4-.13.03-.21-.03-.29-.06,0-.32-.1-.52-.38-.54-.65-.05-1.05.23-1.53.37-.09.03-.2.07-.32.03-.06-.27.31-.61.51-.75.41-.28.95-.46,1.57-.51"/>
  <path class="cls-2" d="M68.61,74.92c.01.16.11.4.05.59-.09.26-.6-.06-.7-.13-.11-.07-.21-.13-.33-.19.31-.27.65-.52.97-.78.07.2,0,.24.02.51M63.39,71.14c-.08.12-.1.31-.21.4-.19.17-.72-.12-1.05-.03-.2.05-.33.3-.46.43.24.38-.36.4.24.59.19.06.38.09.62.11-.06.29-.46,1.61-.63,1.71-.44.25-.86.55-1.31.78-.26.14-.52.22-.76.35-.34.18-.35.16-.27-.22.08-.43,1.34-1.75.79-2.1-.19-.12-.62-.15-.92-.2-.46-.08-1.23-.45-1.64-.22-.23.13-.46,1.04-.6,1.36-.07.16-.24.31-.3.46-.07.17.05.23-.02.38-.03.08-.04.11-.03.21.54.18.48-.19.72-.48.08-.1.24-.13.32-.22.13-.16.15-.39.27-.58.02-.03.06-.09.09-.09.13-.02,1.05.22,1.15.27-.06.22-.19.31-.29.48-.35.6-.77,1.23-.59,2.05.05.24.2.27.48.22.29-.05.62-.37.86-.51.56-.33,1.13-.64,1.63-1.04.03-.02.12-.1.16-.11.04,0,.08.01.1.02.04,0,.05.02.08.03-.06.58-.11,1.54.56,1.5.1,0,.27-.09.37-.16.28-.2.56-.42.84-.62.33-.24.57-.61.95-.8.11.16-.02.54.03.85.02.12.11.34.16.44.02.03.05.17.11.21.04.02.08,0,.13.02.67.12,1.23-.37,1.61-.65.4.24,1.13.48,1.62.62.13.03.29.02.4.06.12.05.28.14.46.08.17-.05.29-.26.41-.37.04-.03.15-.15.19-.16.05-.02.12.03.18-.02,0,0,0-.04,0-.05.05-.22-.1-.4-.15-.65-.04-.22-.03-.44-.02-.67,0,0,.01-.29.02-.34.02-.2.03-.58.06-.73.03-.17.48-.94.16-1.05-.11-.04-.27-.04-.37-.02-.05.01-.07.06-.1.08-.05.04-.14.04-.19.08-.19.13-.28.39-.41.58-.07.1-.21.23-.3.32-.59.58-1.31,1.03-2.07,1.45-.22.12-.42.29-.67.42-.2-.4-.18-.65-.08-1.07.11-.48.41-.82.63-1.19.1-.17.04-.3-.13-.4-.1-.06-.34-.01-.48.05-.29.14-.39.48-.6.7-.63.67-1.46,1.45-2.29,1.91-.25-.46-.06-1.26.13-1.81.04-.12.14-.26.17-.38.06-.24.04-.49.19-.64.08-.07.21-.1.33-.13,0,0,.02,0,.05,0,.08-.02.15-.03.29-.05.58-.09,1.48-.16,1.77-.65.05-.08.07-.16-.02-.21-.18-.1-.43-.15-.69-.14l-.11-.02c-.27.03-.47.04-.72.05-.1,0-.18.03-.27,0,.15-.31.34-.67.6-.86.14-.09.27-.1.29-.27-.1,0-.19,0-.27-.02-.07-.02-.1-.09-.19-.09-.45,0-.83.5-1.02.78"/>
  <path class="cls-2" d="M120.78,69.89c.13,0,.35.1.32.27,0,.04-.89,1.19-.94,1.21-.09.05-.19.03-.29.09-.11.08-.25.36-.38.4-.09.03-.18,0-.27.05-.06-.09-.13-.16-.1-.27.08-.32.46-.71.64-.96.12-.17.21-.35.35-.51.12-.14.45-.3.67-.29"/>
  <path class="cls-2" d="M106.3,71.49c-.14.2-.27.46-.46.6-.25.2-.58.38-.76.64-.11.16-.37.61-.06.72.2.07.44-.16.6-.21.91-.27,2.33-.42,2.95.4.15.19.33.46.27.81-.05.3-.36.58-.57.76-.33.29-.96.71-1.42.85-.62.19-1.62.17-2.21-.09-.34-.15-.63-.4-.93-.61-.2-.14.15-.28-.24-.43-.32-.12-.53.1-.76.15.07-.35.22-.57.33-.86.46-1.25,1.43-3,2.67-3.38.08-.03.2-.09.32-.09.68,0,.53.38.27.75M105.77,70.09c-.88.31-1.42.89-1.97,1.53-.81.95-1.33,1.82-1.86,3.01-.11.24-.54,1.21-.45,1.51.09.29.35.14.49.03.17-.13.26-.29.49-.35.69.98,1.94,1.41,3.3,1.22.93-.13,1.55-.62,2.24-1.04.75-.45,1.56-.86,1.78-1.83.09-.4.09-.72-.08-1.07-.22-.44-.47-.63-.89-.83-.05-.02-.1-.09-.16-.11-.59-.17-1.21-.02-1.85-.09,0,0-.01-.03-.02-.03,0,0,.11-.18.17-.25.27-.33,1.05-1.38.35-1.78-.14-.08-.36-.18-.56-.18-.36,0-.69.15-1,.26"/>
  <path class="cls-2" d="M55.02,71.8c.01.06-.07.17-.08.24.02,0,0,.06,0,.04.04.5-.06,1.37-.16,1.93-.57.03-1.13.2-1.78.11.12-.18.24-.34.36-.51.3-.42.63-.79.94-1.18.05-.07.08-.18.11-.22.12-.19.34-.36.52-.49,0,0,.08.08.08.08M55.69,69.87s-.11.05-.14.08c-.24.16-.33.46-.49.7-.11.17-.25.34-.38.51-.52.71-1.14,1.35-1.74,1.99-.22.24-.39.53-.6.78-.19.22-.36,0-.65.11-.08.03-.21.21-.27.27-.01.01-.04.04-.05.05-.16.23,0,.52-.03.76-.02.14-.34.5-.42.65-.09.19-.21.49-.12.75.15.47.74-.34.84-.42.11-.08.22-.12.33-.19-.05-.23-.17-.15-.03-.37.05-.07.09-.24.16-.29.14-.08.24-.01.4-.03.44-.06,1.13-.08,1.48-.18.25-.07.54-.12.83-.13.11.37.08.65.11,1.05.03.41.11.92.15,1.3.1.04.15.07.27.03.27-.08.36-.41.57-.56.09-.06.27-.06.3-.18.04-.14-.06-.21-.08-.29-.02-.06,0-.2-.03-.3-.07-.23-.24-.47-.25-.73-.01-.13-.05-.51.06-.6.09-.08.2-.11.29-.19-.21-.15-.05-.17.09-.29-.06-.3-.47-.17-.51-.44-.04-.28.03-.48.05-.74.05-.81.18-1.67.35-2.4,0,0,.01-.1.02-.11.05-.33.12-.68-.35-.65-.02,0-.1.02-.14.03"/>
  <path class="cls-2" d="M52.99,69.22c.19-.02.47.07.53.17,0,.01-.01.06,0,.07-.23.18-.4.43-.59.65-.27.31-.6.53-.9.8-.08.07-.13.19-.22.25-.1.07-.25.1-.35.16-.1.06-.23.1-.27-.05-.05-.2.15-.35.25-.45.17-.15.39-.38.49-.59.24-.48.38-.97,1.07-1.02"/>
  <path class="cls-2" d="M50.13,69.23c.1,0,.12.06.18.09.04.03.07.03.11.05-.11.26-.09.11-.27.24-.11.08-.22.25-.32.35-.33.33-.58.75-.86,1.13-.49.68-1.01,1.4-1.28,2.28-.12.38-.21.76-.29,1.21-.03.13-.03.26-.03.37,0,.02-.02.21-.02.21,0,.03.01.04-.02.05,0,.03.02.11.02.11-.17,1.16,1.79-.09,2.05-.16.16-.05.34-.07.45.02-.22.54-1,.97-1.5,1.26-.47.28-.86.3-1.48.16-.14-.03-.24-.01-.37-.07-.41-.17-.27-.88-.18-1.26.15-.63.25-1.21.48-1.77.43-1.08,2.11-4.23,3.32-4.27"/>
  <path class="cls-2" d="M87.39,70.99c-.2.2-.41.43-.57.67-.08.11-.12.32-.25.38-.11.05-.31.02-.43.02-.27-.02-.54.05-.68.19-.04.03-.15.14-.16.19-.03.12.06.2.03.3,0,.02-.06.08-.08.13.21.13.45.17.73.25-.08.29-.22.5-.33.74-.06.13-.07.28-.15.42-.04.07-.16.13-.22.19-.45.41-1.14,1.08-1.8,1.16-.06-.19.04-.37.09-.53.13-.39.25-.74.44-1.07.15-.25.38-.49.51-.75.04-.07.04-.16,0-.22-.03-.05-.11-.08-.16-.11-.17-.11-.24-.1-.46-.05-.27.06-.37-.17-.57-.25-.31-.14-.95-.05-1.18.06-.38.19-.93.64-1.19.97-.14.17-.29.34-.41.51-.25.36-.44.93-.97,1-.17.02-.36.05-.46-.03-.12-.1-.08-.94-.05-1.18l-.02-.11c0-.33,0-.4-.29-.46-.62-.14-.94.42-1.24.72-.17.16-.3.3-.53.41.02-.25.1-.54.21-.75.18-.37.18-.72-.13-.96-.09-.07-.22-.14-.35-.1-.12.05-.38.34-.49.43-.34.3-.76.84-1.03,1.21-.13.18-.22.37-.36.53-.09.09-.17.16-.27.24-.09.07-.42.36-.64.22-.3-.19.72-1.71.81-1.83.02-.03.04-.05.06-.08.03-.03.03-.06.06-.09.03-.03.05-.04.08-.06.02-.02.06-.05.08-.07.02-.02.08-.12.08-.13.03-.13-.22-.29-.3-.32-.28-.09-.43.25-.7.22-.14-.01-.22-.18-.32-.24-.3-.17-.88-.15-1.21.02-.85.41-2.77,2.3-2.35,3.57.04.12.08.31.18.36.04.02.21.02.21.02.08,0,.17,0,.25,0,.8-.1,1.33-.83,1.96-1.18l.06.02c.03.35-.12.93.42.86.25-.03.46-.12.67-.21.02-.01.06-.04.08-.05.03-.02.08-.04.11-.05.05-.02.08-.02.13-.05.37-.19.76-.5,1.02-.81.04-.05.25-.37.28-.38.05-.02.03.15.02.16.03.22,0,.45.03.62-.02.01-.08.52-.06.62.02.07.16.19.24.21.44.07,1.54-1.43,1.86-1.69.06.03.14.03.14.1.01.07-.07.27-.08.33-.07.45.04,1.25.51,1.29.55.05,1.22-.52,1.56-.81.04.23.09.54.25.73.07.07.15.07.25.11.57.18,1.04-.09,1.43-.37.28-.19.44-.52.7-.72.1.28,0,.71.15.94.49.72,1.87-.46,2.18-.75.07-.07.35-.41.51-.35.05.02-.02.1.02.1-.08.3-.02,1.08.3,1.2.31.11.8-.08,1.05-.18.06-.03.13-.05.21-.08.07-.03.17-.07.25-.11.35-.16.98-.58,1.17-.89.06-.08.1-.22.08-.35-.06-.46-.88.26-1.02.35s-.34.11-.51.16c-.09.03-.46.1-.54-.02-.05-.06,0-.07,0-.11-.13-.69.11-1.33.35-1.97.03-.08.03-.2.09-.24.35-.22,1.3-.23,1.72-.3.49-.09,1.68-.38,1.26-.97-.44.05-.73.02-1.18.1-.2.04-.43.09-.59.1-.19,0-.38.04-.53-.03.11-.14.19-.27.29-.42.15-.23.45-.38.53-.72-.16-.04-.45-.14-.61-.13-.11,0-.17.13-.24.19M73.11,73.8c.08.06.31.19.27.36-.02.09-.21.2-.27.27-.43.47-.85.88-1.41,1.22-.07.04-.19.17-.27.19-.07.02-.14-.02-.18-.03-.45-.22.4-1.42.54-1.63.09-.12.72-.58.91-.59.22-.01.3.11.42.21M82.8,73.7c.09.06.31.19.27.37-.02.09-.21.2-.27.27-.43.47-.76.88-1.33,1.22-.07.04-.28.16-.36.19-.07.02-.14-.02-.17-.03-.45-.21.4-1.42.54-1.63.09-.12.72-.58.91-.59.22-.01.3.12.42.21"/>
  <polygon class="cls-1" points="2.31 53.37 15.52 60.98 15.54 76.24 2.32 68.63 2.31 53.37"/>
  <polygon class="cls-2" points="16.76 44.86 41.9 30.3 41.93 60.95 29.99 67.73 29.98 52.47 16.76 44.86"/>
  <path class="cls-1" d="M64.4,65.48c-1.19.46-3.2.95-5.16.95-7.11,0-12.94-4.26-12.95-11.25,0-6.47,5.3-10.84,12.56-10.85,1.4,0,3.94.39,5.47,1.06l-1.58,3.78c-1.04-.3-2.93-.39-3.54-.39-3.08,0-6.19,1.99-6.19,6.63,0,4.55,3.15,6.56,6.51,6.55,1.37,0,2.65-.25,3.63-.49l1.26,4Z"/>
  <path class="cls-1" d="M78.2,44.68l8.14,21.36h-6.84s-1.68-5.09-1.68-5.09h-6.62s-2.04,5.11-2.04,5.11h-5.04s8.68-21.37,8.68-21.37h5.4ZM76.78,57.56c-.7-2.53-1.32-4.58-2.08-7.63h-.06c-.82,3.05-1.55,5.1-2.34,7.63h4.49Z"/>
  <path class="cls-1" d="M95.2,54.52c.82-.16,2.93-.98,2.93-3.33,0-1.92-1.56-2.53-3.09-2.53h-1.74l.02,17.37h-6.44s-.02-21.36-.02-21.36h8.85c5.31-.02,8.58,2,8.58,6.15,0,3.6-3.23,7.54-8.81,7.55h-1.16v-3.76s.88-.09.88-.09Z"/>
  <polygon class="cls-1" points="118.1 48.64 111.57 48.65 111.58 52.86 117.95 52.85 117.96 56.85 111.58 56.86 111.59 62.01 119.43 62 119.43 66 105.15 66.02 105.13 44.66 118.1 44.64 118.1 48.64"/>
  <path class="cls-1" d="M120.61,66l-.02-21.36h9.49c4.24-.02,7.05,1.72,7.05,4.83,0,3.33-2.83,4.31-4.17,4.92v.06c2.47.12,5.55,2.04,5.56,5,0,3.91-3.08,6.54-9.12,6.54h-8.79ZM127.04,53.12h1.13c2.35,0,3.17-1.35,3.17-2.75,0-1.8-1.56-2.29-2.5-2.29h-1.8s0,5.04,0,5.04ZM127.05,62.55h1.22c2.26,0,3.69-1.13,3.69-3.21,0-1.68-.86-2.78-3.09-2.77h-1.83v5.99Z"/>
  <polygon class="cls-1" points="137.72 80.54 137.72 87.08 34.66 87.19 23.24 80.66 137.72 80.54"/>
</svg>