<?xml version="1.0" encoding="UTF-8"?>
<svg id="Calque_1" data-name="Calque 1" xmlns="http://www.w3.org/2000/svg" viewBox="0 0 141.73 141.73">
  <defs>
    <style>
      .cls-1 {
        fill: #fff;
      }
    </style>
  </defs>
  <g id="_7hHS5Z" data-name="7hHS5Z">
    <path class="cls-1" d="M67.64,33.23c-16.97,1.08-42.69,6.04-55.8,17.35-15.29,13.18-9.47,29.77,6.45,38.75,26.1,14.73,73.03,13.46,102.11,9.57,2.53-.34,17.29-2.42,18.08-3.44,1.04-1.35-.47-3.48-2.03-3.45-27.11,5.13-55.76,8-83.15,3.2-16.02-2.81-44.28-12.31-37.18-33.89,3.65-11.09,17.59-17.16,28.01-20.04,12.73-3.53,26.5-4.57,39.69-4.78,1.69-.53,1.69-2.83,0-3.35-2.55-.79-12.85-.12-16.17.09ZM130.89,68.88c3.42-8.42,6.24-21.19,2.21-29.81-2.11-4.51-10.03-4.81-14.39-6.05l12.18,35.85ZM105.08,34.46c-1.04-1-8.99,6.3-10.06,7.5-9.57,10.81-11.75,25.55-7.14,39.1l17.2-46.61ZM118.7,65.3l-6.81-20.09-6.81,20.09h13.63ZM66.35,47.37c-5.39-1.1-11.08-1.1-16.5,0l7.9,20.79,8.6-20.79ZM76.4,73.9c7.12-6.05,5.82-21.67-3.59-25.1l3.59,25.1ZM37.65,78.92l4.3-27.97c-6.45,4.94-9.06,13.06-7.71,20.99l3.41,6.98ZM55.59,83.22c-1.73-5.81-3.7-11.74-5.91-17.39-.38-.96-.88-3.24-1.97-3.4l-2.88,20.79c3.78,1.35,6.92-.24,10.76,0ZM69.13,78.84c.4-.56-1.2-12.09-1.54-13.72-.15-.69-.26-2.15-1.23-1.97l-6.46,18.64,9.24-2.95ZM97.91,87.52c6.69.34,13.63-.62,19.62-3.68,3.29-1.68,7.92-4.37,4.41-8.51-1.39-1.64-16.45-.32-19.63-.61l-4.4,12.8Z"/>
  </g>
</svg>