<?xml version="1.0" encoding="UTF-8"?>
<svg id="Calque_1" data-name="Calque 1" xmlns="http://www.w3.org/2000/svg" viewBox="0 0 141.73 141.73">
  <defs>
    <style>
      .cls-1 {
        fill: #fff;
      }
    </style>
  </defs>
  <path class="cls-1" d="M29.52,21.72c13.52,4.7,26.97,9.62,40.52,14.23.48.19.95.19,1.43,0,13.53-4.63,26.97-9.51,40.46-14.23-4.79,7.63-9.62,15.24-14.51,22.8-2.26-.97-4.59-1.78-6.87-2.71,1.32-2.32,2.74-4.59,4.08-6.91-4.36,2.19-8.79,4.23-13.12,6.49,3.03,1.15,6.05,2.28,9.06,3.5,1.67.68,3.47,2,3.58,3.96.27,2.18-1.22,3.96-2.27,5.71-6.52,10.2-13,20.43-19.56,30.61.04-2.69-.27-5.4.05-8.07,2.58-8.18,5.12-16.37,7.47-24.62.46-1.23-.91-1.88-1.79-2.31-2.49-1.1-4.82-2.55-7.36-3.5-2.58,1.12-5.06,2.47-7.59,3.69-.78.36-1.89,1.08-1.44,2.1,2.33,8.25,4.9,16.44,7.46,24.62.28,2.67.01,5.39.03,8.08-6.45-10.09-12.88-20.2-19.32-30.3-1.12-1.86-2.75-3.76-2.47-6.08.15-1.95,1.94-3.24,3.61-3.92,2.98-1.21,6-2.32,8.99-3.49-4.32-2.25-8.74-4.3-13.09-6.48,1.33,2.32,2.75,4.58,4.07,6.91-2.29.91-4.61,1.76-6.9,2.69-4.87-7.57-9.7-15.18-14.51-22.79h0ZM58.17,114.08c.05-4.46-.03-8.91.04-13.37,7.33.05,14.67-.01,22.01.03,1.43-.05,3.11.67,3.39,2.22.18,1.51.14,3.05.03,4.57-.09,1.67-1.84,2.69-3.39,2.58-5.98.01-11.96,0-17.95,0,0,1.34,0,2.67.03,4.01-1.38.04-2.77.02-4.15-.03M62.28,103.73c.02,1.04.03,2.08.05,3.12,5.68-.05,11.36.05,17.04-.05,1.03-.6.33-2.03.52-2.99-5.86-.2-11.74-.04-17.61-.09h0Z"/>
  <path class="cls-1" d="M.71,102.76c.59-1.33,2.11-2.07,3.53-2.04,7.19-.02,14.38,0,21.57,0,.01,1.23.02,2.46.03,3.69-7.04.05-14.1-.06-21.14.05-.13.1-.39.32-.52.43-.08,1.77.02,3.55-.05,5.32.64.16,1.28.32,1.95.29,6.58-.02,13.17,0,19.75-.02,0,1.19,0,2.38,0,3.57-6.9.2-13.8.03-20.7.1-1.69.07-3.79-.26-4.46-2.07-.37-1.6-.11-3.26-.18-4.88.02-1.47-.19-2.99.21-4.44h0ZM29.27,110.83c-.01-3.37-.02-6.75.02-10.12,1.47,0,2.95,0,4.43.02.05,3.23-.05,6.47.06,9.7,5.47.11,10.95.05,16.42.04.23-3.25.05-6.5.1-9.75,1.49,0,2.98,0,4.48-.02.03,3.37.04,6.74,0,10.12.02,1.81-1.7,3.32-3.46,3.29-5.14.15-10.28-.05-15.42.04-1.48,0-2.99.09-4.44-.28-1.23-.46-2.26-1.68-2.19-3.04ZM87.11,100.71c7.2.02,14.41,0,21.61,0,1.56-.03,3.39.78,3.78,2.42.11,1.51.1,3.03,0,4.53-.23,1.27-1.34,1.93-2.36,2.52.98,1.24,1.84,2.55,2.72,3.87-1.78-.11-4.49.95-5.48-1.06-.6-.95-1.16-1.92-1.74-2.88-4.76-.04-9.52-.02-14.28-.01,0,1.31.01,2.62.03,3.94-1.42.13-2.85.13-4.27.04.02-4.45-.02-8.91.01-13.36M91.39,103.58c-.04,1.09-.04,2.17-.03,3.26,5.63-.04,11.25.08,16.88-.05.14-.1.42-.3.57-.41-.08-.91.47-2.29-.63-2.74-5.59-.12-11.19,0-16.78-.05h0ZM116.02,104.04c-.06-2.04,2.07-3.46,3.96-3.32,7.14,0,14.27.01,21.41,0,.02,4.45.08,8.91-.05,13.37-1.24.05-2.49.17-3.73.02-.56-1.17-.09-2.7-.22-4-5.73,0-11.47,0-17.2,0,0,1.34,0,2.68,0,4.02-1.39.04-2.77.02-4.16-.04.04-3.35-.09-6.69-.02-10.04M120.21,103.77c-.02,1.03-.01,2.05,0,3.08,5.72-.03,11.44,0,17.16-.01,0-1.04.01-2.07.03-3.1-5.73,0-11.46-.06-17.19.03h0Z"/>
</svg>