<?xml version="1.0" encoding="UTF-8"?>
<svg id="Calque_1" data-name="Calque 1" xmlns="http://www.w3.org/2000/svg" viewBox="0 0 141.73 141.73">
  <defs>
    <style>
      .cls-1 {
        fill: #e5e5e5;
      }

      .cls-2 {
        fill: #fff;
      }
    </style>
  </defs>
  <path class="cls-2" d="M36.67,108.01h-7.47v1.58c0,.38.07.73.22,1.05.15.31.35.59.61.82.26.23.57.42.94.56.37.14.77.21,1.21.22v1.89c-.42.2-.89.35-1.41.45-.52.1-1.04.15-1.56.15-.76,0-1.48-.14-2.17-.42-.69-.28-1.3-.66-1.82-1.15-.53-.49-.95-1.07-1.26-1.75-.31-.68-.47-1.41-.47-2.21s.15-1.47.45-2.15c.3-.67.71-1.26,1.21-1.76.51-.5,1.1-.89,1.78-1.19.68-.29,1.39-.44,2.15-.44.58,0,1.12.09,1.64.27.52.18,1,.42,1.46.72.49.34,1.05.51,1.66.51.87,0,1.59-.3,2.15-.89l1.14-1.18c-.56-.6-1.15-1.15-1.79-1.63-.64-.48-1.29-.89-1.98-1.23-.68-.33-1.38-.59-2.11-.78-.72-.18-1.45-.27-2.18-.27-.92,0-1.81.12-2.67.36-.86.24-1.66.57-2.41,1.01-.75.43-1.43.96-2.04,1.56-.62.61-1.14,1.28-1.58,2.02-.43.74-.77,1.54-1.01,2.39-.24.86-.36,1.74-.36,2.67s.12,1.81.36,2.67c.24.86.58,1.65,1.01,2.39.43.74.96,1.42,1.58,2.02.62.61,1.3,1.13,2.04,1.56.74.43,1.55.77,2.41,1.01.86.24,1.75.36,2.67.36.7,0,1.38-.04,2.06-.12.68-.08,1.35-.21,2-.41.65-.2,1.27-.47,1.87-.81.6-.34,1.16-.78,1.68-1.32v-8.54Z"/>
  <path class="cls-2" d="M78.49,119.03l-8.59-19.65h-3.87l-8.59,19.65h2.91c.28,0,.57-.04.85-.13.28-.09.55-.21.8-.37.25-.16.47-.35.67-.56.2-.21.35-.44.46-.69l.93-2.18h7.82l.96,2.18c.12.27.27.52.47.73.19.21.41.4.64.55.24.15.5.27.77.34.28.08.57.12.87.12h2.89ZM65.86,111.04l1.73-4.12c.07-.18.14-.36.19-.52.05-.16.09-.31.12-.44.04-.16.06-.3.08-.42,0,.13.03.27.07.41.03.13.06.27.11.44.05.16.11.34.19.53l1.71,4.12h-4.2Z"/>
  <path class="cls-2" d="M98.75,99.38h-4.47v12.41s-.01-.1-.04-.21c-.03-.11-.07-.24-.12-.39-.05-.15-.12-.31-.19-.49-.07-.17-.16-.33-.26-.48l-6.87-10.07c-.18-.26-.44-.46-.78-.59-.34-.13-.73-.19-1.17-.19h-4.42v19.65h4.47v-13.59l9.39,13.59h4.46v-19.65Z"/>
  <path class="cls-2" d="M114.33,118.68c.85-.23,1.63-.56,2.37-.99.73-.42,1.4-.94,2.01-1.54.61-.6,1.13-1.26,1.56-1.99.43-.73.76-1.51,1-2.35.24-.84.36-1.71.36-2.61s-.12-1.78-.36-2.61c-.24-.84-.57-1.62-1-2.34-.43-.73-.95-1.39-1.56-1.99-.61-.6-1.28-1.11-2.01-1.54-.73-.43-1.52-.76-2.37-.99-.85-.23-1.72-.35-2.63-.35h-8.13v19.65h8.13c.91,0,1.78-.12,2.63-.35M108.06,103.88h3.65c.72,0,1.41.14,2.06.42.65.28,1.23.66,1.73,1.14.5.48.89,1.05,1.19,1.7.29.65.44,1.34.44,2.07s-.15,1.42-.44,2.07c-.29.65-.69,1.21-1.19,1.69-.5.48-1.07.86-1.73,1.14-.65.28-1.34.42-2.06.42h-3.65v-10.66Z"/>
  <path class="cls-2" d="M30.37,130.89c-.09-.03-.24-.07-.3-.07.25-.01.49-.13.72-.34.23-.21.44-.48.62-.81.18-.32.33-.68.44-1.06.11-.39.16-.76.16-1.12,0-.65-.12-1.26-.37-1.83-.25-.57-.58-1.07-1.01-1.5-.43-.43-.93-.76-1.5-1.01-.57-.25-1.19-.37-1.83-.37h-6.6v16.77h7.27c.67-.01,1.3-.14,1.88-.39.59-.25,1.1-.6,1.53-1.03.44-.43.78-.94,1.04-1.53.25-.58.38-1.21.38-1.88s-.15-1.35-.46-1.95c0,0-.69-1.46-1.99-1.88M23.03,125.1h4.27c.33,0,.64.06.93.19.29.12.55.3.77.51.22.22.39.47.51.77.12.29.19.6.19.93s-.06.64-.19.92c-.12.29-.3.54-.51.76-.22.22-.47.39-.77.51-.29.12-.6.19-.93.19h-4.27v-4.79ZM30.29,135.69c-.13.31-.31.57-.54.8-.23.23-.49.41-.8.55-.3.13-.63.2-.98.2h-4.95v-5.03h4.96c.34,0,.67.07.97.2.3.13.57.31.8.54.23.23.41.49.54.8.13.3.2.63.2.97s-.07.67-.2.97"/>
  <polygon class="cls-2" points="36.38 139.56 46.75 139.56 46.75 137.24 38.7 137.24 38.7 132.26 45.22 132.26 45.22 129.94 38.7 129.94 38.7 125.1 46.75 125.1 46.75 122.79 36.38 122.79 36.38 139.56"/>
  <polygon class="cls-2" points="52.59 122.79 50.27 122.79 50.27 139.56 59.83 139.56 59.83 137.24 52.59 137.24 52.59 122.79"/>
  <polygon class="cls-2" points="62.61 139.56 64.92 139.56 64.92 132.58 71.71 132.58 71.71 130.27 64.92 130.27 64.92 125.1 72.97 125.1 72.97 122.79 62.61 122.79 62.61 139.56"/>
  <path class="cls-2" d="M91.15,126.84c-.37-.64-.82-1.21-1.34-1.73-.52-.52-1.1-.97-1.73-1.34-.64-.37-1.32-.66-2.05-.87-.73-.2-1.49-.3-2.28-.3s-1.55.1-2.28.3c-.73.2-1.41.49-2.05.87-.64.37-1.21.82-1.73,1.34s-.96,1.1-1.34,1.73c-.37.64-.66,1.32-.87,2.05-.2.73-.3,1.49-.3,2.28,0,1.19.22,2.3.67,3.34.45,1.04,1.06,1.94,1.84,2.72.78.78,1.68,1.39,2.72,1.84,1.04.45,2.15.67,3.34.67.79,0,1.55-.1,2.28-.3.73-.2,1.41-.49,2.05-.87s1.21-.82,1.73-1.34c.52-.52.97-1.1,1.34-1.73.37-.64.66-1.32.87-2.05.2-.73.3-1.49.3-2.28s-.1-1.55-.3-2.28c-.2-.73-.49-1.41-.87-2.05M89.51,133.6c-.33.76-.77,1.42-1.34,1.98-.57.57-1.23,1.01-1.98,1.34-.76.33-1.57.49-2.43.49s-1.68-.16-2.43-.49c-.76-.33-1.42-.77-1.98-1.34-.57-.57-1.01-1.23-1.34-1.98-.33-.76-.49-1.57-.49-2.43s.16-1.68.49-2.43c.33-.76.77-1.42,1.34-1.98.57-.57,1.23-1.01,1.98-1.34.76-.33,1.57-.49,2.43-.49s1.68.16,2.43.49,1.42.77,1.98,1.34c.57.57,1.01,1.23,1.34,1.98.33.76.49,1.57.49,2.43s-.16,1.68-.49,2.43"/>
  <path class="cls-2" d="M104.79,131.66c.42-.3.78-.65,1.08-1.06.3-.41.54-.86.71-1.35.17-.5.25-1.02.25-1.56,0-.68-.13-1.32-.39-1.91-.26-.6-.61-1.12-1.05-1.56s-.96-.79-1.56-1.05-1.23-.39-1.91-.39h-6.02v16.77h2.32v-6.97h2.49l4.39,5.92c.23.35.51.61.86.79.35.18.75.26,1.2.26h1.59l-5.34-7.21c.49-.16.95-.38,1.36-.68M101.93,130.27h-3.7v-5.16h3.7c.36,0,.69.07,1.01.2.31.14.58.32.82.56.23.23.42.51.56.82.14.31.2.65.2,1.01s-.07.69-.2,1.01c-.14.31-.32.58-.56.82-.23.23-.51.42-.82.55-.31.13-.65.2-1.01.2"/>
  <polygon class="cls-2" points="108.82 125.09 114.04 125.09 114.04 139.56 116.35 139.56 116.35 125.09 121.56 125.09 121.56 122.78 108.82 122.78 108.82 125.09"/>
  <path class="cls-2" d="M51.13,118.02c.19.21.41.4.64.55.24.15.5.27.77.34.28.08.57.12.87.12h2.89l-3.6-7.1c.54-.39,1.01-.8,1.39-1.24.39-.45.71-.93.96-1.42.25-.49.43-1,.54-1.51s.17-1.04.17-1.56-.07-1.06-.2-1.6c-.13-.54-.33-1.06-.59-1.57-.26-.51-.59-.98-.97-1.43-.39-.44-.84-.83-1.34-1.15-.51-.32-1.07-.58-1.7-.77-.63-.19-1.31-.29-2.05-.29h-7.71v19.65h4.48v-5.98h2.61l2.35,4.24c.12.27.27.52.47.73M45.7,103.88h3.46c.27,0,.54.07.8.21.26.14.48.32.68.53.2.22.35.47.47.75.12.28.18.56.18.84s-.06.56-.18.84c-.12.28-.28.53-.47.75-.2.22-.42.4-.68.53-.26.14-.52.21-.8.21h-3.46v-4.66Z"/>
  <path class="cls-1" d="M58.34,86.19h20.44c3.34,0,6.47-.92,9.38-2.18,2.91-1.26,5.46-2.97,7.63-5.13,2.17-2.16,3.89-4.69,5.16-7.6.51-1.18.92-2.4,1.22-3.65h0s.02-.08.03-.12c.03-.11.05-.23.08-.34.34-1.52.51-2.99.55-4.38,0-.29.02-.59.02-.89,0-.04,0-.13-.01-.25-.12-5.74-2.29-9.86-2.29-9.86h0c-1.49-3.46-3.45-5.64-5.32-7.01-2.87-2.09-5.52-2.27-5.95-2.29-.04,0-.06,0-.06,0,1.25-.08,2.45-.65,3.6-1.72,1.15-1.07,2.18-2.41,3.07-4.02.9-1.61,1.62-3.38,2.17-5.3.55-1.92.82-3.78.82-5.57,0-3.22-.61-6.27-1.84-9.12-1.23-2.86-2.9-5.34-5.02-7.46-2.12-2.12-4.61-3.79-7.47-5.01-2.86-1.22-5.9-1.84-9.13-1.84h-17.09c-1.26,0-2.27,1.02-2.27,2.27v6.99c0,1.26,1.02,2.27,2.27,2.27h17.06c1.63,0,3.18.31,4.63.93,1.46.62,2.73,1.48,3.82,2.56,1.09,1.09,1.94,2.36,2.56,3.82.62,1.46.93,3,.93,4.63s-.31,3.17-.93,4.6c-.62,1.44-1.48,2.7-2.56,3.79-1.09,1.09-2.36,1.94-3.82,2.56-1.46.62-3,.93-4.63.93h-12.56c-1.26,0-2.27,1.02-2.27,2.27v6.99c0,1.26,1.02,2.27,2.27,2.27h16c1.71,0,3.32.33,4.84.99,1.52.66,2.84,1.56,3.96,2.69,1.13,1.13,2.02,2.45,2.68,3.97.66,1.52.99,3.13.99,4.85s-.33,3.33-.99,4.85c-.66,1.52-1.55,2.85-2.68,4-1.13,1.15-2.45,2.05-3.96,2.72-1.51.66-3.15.99-4.9.99h-20.44c-1.26,0-2.27,1.02-2.27,2.27v7.22c0,1.26,1.02,2.27,2.27,2.27"/>
  <path class="cls-1" d="M49.85,43.49c2.31-.98,3.98-3.17,4.22-5.77,0-.02,0-.04,0-.06V5.38c0-1.62-1.31-2.93-2.93-2.93h-4.44c-1.96,0-3.56,1.59-3.56,3.56v28.94c0,.53-.02,1.04-.06,1.52h0s0,.03,0,.03c-.07.86-.23,1.63-.53,2.26-.99,2.81-3.62,3.92-5.95,4.72-.2.07-.34.26-.34.48h0c0,.22.14.42.34.49,2.23.76,4.7,1.75,5.84,4.45.57,1,.7,2.42.7,4.01v29.73c0,1.96,1.59,3.56,3.56,3.56h4.44c1.62,0,2.93-1.31,2.93-2.93v-33.01s0-.04,0-.06c-.24-2.6-1.91-4.8-4.22-5.78-.04-.02-.08-.04-.11-.07-.45-.18-.92-.31-1.41-.39.49-.08.96-.22,1.41-.39.03-.03.07-.05.11-.07"/>
</svg>