<?xml version="1.0" encoding="UTF-8"?>
<svg id="Calque_1" data-name="Calque 1" xmlns="http://www.w3.org/2000/svg" viewBox="0 0 141.73 141.73">
  <defs>
    <style>
      .cls-1 {
        fill: #fff;
      }
    </style>
  </defs>
  <path class="cls-1" d="M89.15,84.67c-.3-5.07.4-10.58.01-15.59-.22-2.83-1.64-5.55-4.79-3.5-.82.54-1.44,2.64-1.44,3.51v9.41l-4.97-.31v-26.07s.43-.46.47-.46h4.51v9.57c3.67-1.75,8.22-1.08,10.32,2.57.17.3.23,1.72.86,1.13.12-.11,1-2.21,1.57-2.92,4.56-5.76,13.16-6.01,18.34-.95l2.16,2.95v-4.32c3.29.24,6.91-.69,9.94.93.1-.14-.21-.88.17-.95,1.13-.22,6.12-.1,7.37.1,3.31.51,5.92,3.44,7.07,6.41v12.34h-4.97c-.73-4.59,2.57-13.85-4.66-13.88v13.88h-4.97v-10.34c0-1.56-2.89-4.13-4.66-3.55v13.88h-5.28c-.03-.87.05-1.76,0-2.63-.02-.35.2-.85-.31-.76-2.37,4.63-7.02,6.93-12.24,6.44-.35-.03-1.72-.14-1.75-.58h4.82c.27,0,3.15-1.43,3.55-1.72,2.05-1.44,3.82-4.09,4.06-6.61l-2.05,2.74c-3.89,4.01-11,4.16-14.9.05-.91-.97-.81-1.98-1.93-2.69l-1.31-3.18c-.22,3.76,1.35,7.03,4.04,9.56l-2.33-1.84-1.71-2.47v8.79c0,.57-2.45.54-2.8,1.08h-2.18ZM114.94,69.55c1.12-12.4-15.61-16.12-19.88-4.46-.05.94.34.21.56-.06.74-.88,2.9-3.91,3.79-4.28.45-.18.89.19,1.32.09,6.26-1.36,8.88-.18,13.16,4.5l1.05,4.21ZM106.77,62.56c-1.03-.57-1.97-.5-2.39.67.46.58,2.3-.3,2.48-.15l-.31,1.23c-.51.13-.14-.53-.51-.62-.63-.15-2.13-.01-2.7.31-.2.11-.21.56-.25.58-.38.15-1.11-.99-.9.66-.41.09-.59-.75-.49-.93.42-.73,2.53-.4,2.35-1.53-.45-.06-2.98.22-3.08.33-.16.18-.78,4.12-.84,4.71-.14,1.4.67,1.89-.61,3.25-.9.95-2.71.97-1.69,2.67.19.32,1.54,1.38,1.89,1.51,1.95.71,2.93-1.75,4.36-2.75,1.01-.7,2.09-.9,3.03-1.37,1.47-.73.68,0,1.43.91.19.22,2.41,1.77,2.57,1.79.42.06,1.77-1.17,1.98-1.63,1.82-3.87-1.26-2.66-3.28-4.81l-.46,1.54c.36-1.63-1.2-5.6-2.58-6.38Z"/>
  <path class="cls-1" d="M16.44,51.66c.08.08-.06.94,0,1.23.68-.28,2.32-1.23,2.95-1.23h6.99v26.84h-5.28v-21.29c-1.25.07-2.57,1.19-3.24,2.18-.47.69-1.42,3.12-1.42,3.84v15.27h-4.97v-21.29c-2.45-.54-4.66,3.45-4.66,5.4v15.89H1.52v-15.89c0-.8.94-3.99,1.31-4.87.95-2.25,4.28-6.09,6.92-6.09.91,0,6.45-.24,6.68,0Z"/>
  <path class="cls-1" d="M68.95,78.5h-14.29v-6.33c0-2.17,2.05-4.89,3.76-6.14l2.46-1.42h-6.21v-4.94h6.99c2.55,0,7.3,4.42,7.3,6.94v11.88ZM63.98,69.24c-2.58-.2-4.42,1.8-4.35,4.32h4.35v-4.32Z"/>
  <path class="cls-1" d="M41.92,59.68v7.56c0,1.38-2.45,4.22-3.57,5.09-.67.52-1.61.62-2.02,1.24h5.59v4.94h-6.99c-2.64,0-6.61-4.08-6.96-6.66-.56-4.08.02-8.1,3.6-10.56.66-.45,3.01-1.6,3.67-1.6h6.68ZM36.94,64.61c-2.53-.12-4.11,2-4.35,4.32,2.67.31,4.81-1.61,4.35-4.32Z"/>
  <path class="cls-1" d="M75.79,78.5h-5.28v-26.84h4.82s.47.43.47.46v26.38Z"/>
  <path class="cls-1" d="M50.93,55.05v4.63c0,.12,2.49-.12,2.49,0v4.94c0,.12-2.49-.12-2.49,0v6.02c0,1.5,2.49,2.88,2.49,3.09v4.78c-2.57-.17-5.31-2.3-6.47-4.53-.21-.41-.99-2.44-.99-2.72v-6.63c0-.11-2.18.11-2.18,0v-4.94c0-.11,2.18.11,2.18,0v-4.63h4.97Z"/>
  <path class="cls-1" d="M34.61,58.44c-2.16.31-4.28,2.22-6.37,2.77,2.06-2.86,5.25-4.32,8.57-5.22,1.26-.34,3.72-.95,4.95-.96.66,0,.4-.02.47.46.13.89-.1,2.01,0,2.94-2.37.24-5.32-.32-7.61,0Z"/>
</svg>