<?xml version="1.0" encoding="UTF-8"?>
<svg id="Calque_1" data-name="Calque 1" xmlns="http://www.w3.org/2000/svg" viewBox="0 0 141.73 141.73">
  <defs>
    <style>
      .cls-1 {
        fill: #e5e5e5;
      }

      .cls-2 {
        fill: #c6c6c6;
      }

      .cls-3 {
        fill: #fff;
      }
    </style>
  </defs>
  <path class="cls-2" d="M24.77,14.5l-1.28.64c-.78.85-2.62,2.84-2.8,3.96-.09.54.38,2.68.6,3.26.26.72.76,1.14,1.03,1.81-.67-.32-1.37.23-1.91.16-.73-.1-1.73-.75-2.93-.77-1.67-.03-2.62,1.25-2.68,2.77l.46.08-1.84,2c.68-.06,1.3-.71,1.95-.82.41-.07.67.12,1,.09.42-.04,2.14-.48,2.56-.66.97-.41.21-.63-.36-.87-.93-.39-1.94-.61-2.84-1.07l-.02-.59c.89.24,1.65.12,2.57.42.56.18,1.24.75,1.66.81.61.08,1.39-.29,1.9-.61.17.23-.47,1.6-.66,1.8-.25.27-1.9.97-2.02,1.27-.05.13.12.36.05.44-.07.09-.35-.08-.28.18.5-.19,1.04-.09,1.54-.22.71-.19,1.32-.96,1.76-1.15.67-.29-.29.78-.47.92-1.2.94-2.61.69-3.94,1.12-1.08.35-.88.79-1.19,1.73.6-.19.97-.84,1.53-1.08,1-.43,2.31-.22,3.25-.58.67-.26,1.67-1.12,2.37-1.31.32-.09.16.21.34.37-.95.55-1.39,1.56-2.24,2.2-.33.25-3.59,2.02-3.81,2.02H1.3V14.5h23.47ZM16.48,22.94c-.44-.06-.72,0-1.13.18-.17.07-2.64,2.13-2.81,2.33-.32.37-.79,1.47-1.12,1.95.4-.26.65-.77.99-1.08.46-.43,1.07-.79,1.54-1.22.16.82.88-.86,1.15-1.15l1.38-.99ZM16.48,28.15c.22.04.92,0,.92-.23,0-.39-.9-.12-.92.23ZM16.18,29.39c-.8-.04-2.05.02-2.52.78-.21.34-.17.86-.54,1.14l3.06-1.92ZM15.86,30.6c.04-.06.08-.43-.06-.45l-.54.61c.11.03.58-.13.6-.17Z"/>
  <path class="cls-3" d="M51.45,14.5v18.26h-19.25c-.15,0-2.35-1.12-2.76-1.22-.38-1.13.32-3.12,1.58-3.35.87-.16,3.15,1.01,3.39-.45.05-.28-.13-.54-.1-.71.04-.19.36-.32.4-.5.06-.25-.34-.59-.28-.66.02-.02.42-.06.46-.24.04-.2-.43-.58-.17-.9.18-.22.74.07.79-.48.06-.67-1.05-1.46-1.2-2.18-.11-.54.02-1.1-.05-1.64s-.61-1.68-.59-2.02c.01-.27.7-.75.45-.99-.31-.31-.52.41-.61.3-.31-.38-.46-.89-1.07-1.15,1.64-.7.68-1.36-.31-2.07h19.33Z"/>
  <path class="cls-3" d="M103.72,61.64c5.11-.69,9.05,3.5,7.78,8.55-1.34,5.37-8.55,6.69-11.97,2.46-3.16-3.92-.92-10.32,4.18-11.01ZM104.33,64.1c-5.19.65-4.49,9.35,1.33,8.54,4.84-.68,4.36-9.25-1.33-8.54Z"/>
  <path class="cls-3" d="M78.72,80.83c9.99-1.21,10.53,13.63,1.06,13.55-8.63-.07-8.98-12.59-1.06-13.55ZM79.18,83.28c-5.05.72-4.56,9.24,1.32,8.53,5.1-.61,4.26-9.33-1.32-8.53Z"/>
  <path class="cls-3" d="M1.3,93.98v-12.89h5.75c3.19,0,6.17,3.28,6.2,6.38.03,2.87-2.75,6.5-5.74,6.5H1.3ZM3.91,91.52h3.45c.13,0,1.07-.45,1.26-.58,2.54-1.62,2.46-5.49-.22-6.91-.15-.08-1.14-.49-1.2-.49h-3.3v7.98Z"/>
  <path class="cls-3" d="M1.3,74.8v-12.89h5.9c3.13,0,5.97,3.35,6,6.39.03,2.9-2.66,6.49-5.69,6.49H1.3ZM3.91,72.34h3.45c.13,0,1.07-.45,1.26-.58,2.41-1.54,2.48-5.19.09-6.76-.24-.16-1.3-.64-1.51-.64h-3.3v7.98Z"/>
  <path class="cls-3" d="M36.19,81.09c3.36.4,4.97,3.81,2.22,6.14,2.66,1,2.78,4.53.41,6.02-.37.23-1.65.74-2.02.74h-5.14v-12.89c1.43.12,3.12-.17,4.52,0ZM34.28,86.15c3.8.75,3.8-3.51,0-2.76v2.76ZM34.28,91.83c1.39.07,3.54.18,3.54-1.76s-2.18-1.82-3.54-1.76v3.53Z"/>
  <path class="cls-3" d="M125.61,61.91c.68.08,1.87.54,2.43.95,1.46,1.08,1.81,3.53.78,5.03-.25.36-1.32,1.14-1.3,1.3l3.69,5.61h-2.99c-.3,0-2.78-4.56-3.36-5.07-.37-.26-.88-.11-1.31-.14v5.22h-2.53s-.23-.21-.23-.23v-12.43s.21-.23.23-.23c1.39,0,3.28-.16,4.6,0ZM123.54,67.44c1.37.04,3.08.22,3.08-1.61,0-1.91-1.67-1.64-3.08-1.61v3.22Z"/>
  <path class="cls-3" d="M79.68,74.8h-2.99c-.3,0-2.85-4.52-3.38-5.06-.35-.3-.87-.11-1.3-.15v5.22h-2.76v-12.66s.21-.23.23-.23h4.6c.27,0,1.67.48,1.97.64,2.55,1.37,2.31,5.28-.18,6.65l3.81,5.6ZM72.01,67.44c1.36.06,3.02.2,3.08-1.61s-1.73-1.66-3.08-1.61v3.22Z"/>
  <path class="cls-3" d="M61.65,61.91c3.61.38,5.4,4.46,2.52,6.82-.27.22-.69.13-.61.47l3.84,5.6h-2.99c-.3,0-2.94-4.48-3.38-5.06-.35-.3-.87-.12-1.3-.15v4.99s-.21.23-.23.23h-2.53v-12.89c1.5.11,3.21-.16,4.68,0ZM59.58,67.44c1.62.18,3.69,0,3.19-2.19-.07-.31-.7-1.03-.96-1.03h-2.22v3.22Z"/>
  <path class="cls-3" d="M94.02,81.09c.58.06,1.78.47,2.27.79,1.75,1.14,2.1,4.04.71,5.57-.3.33-1.11.67-1.08.91l3.69,5.61h-3.07l-3.21-5c-.22-.36-1.39-.28-1.39.01v4.99h-2.61v-12.89c1.49.12,3.22-.16,4.68,0ZM91.95,86.61c1.47.2,3.56-.05,3.19-2.03-.06-.33-.71-1.19-.96-1.19h-2.22v3.22Z"/>
  <path class="cls-3" d="M17.17,42.73c1.7.18,3.55,1.3,3.76,3.14.12,1.1-.05,2.33-.79,3.2-.23.27-1.09.7-1.06.94l3.69,5.61h-3.07l-3.21-5c-.37-.37-.92-.19-1.39-.22v5.22h-2.61v-12.89c1.5.11,3.21-.16,4.68,0ZM15.1,48.26c1.3.05,3.04.2,3.19-1.5.04-.52-.41-1.72-.96-1.72h-2.22v3.22Z"/>
  <path class="cls-3" d="M18.32,61.91v8.67c0,.06.27.79.33.9.75,1.32,2.83,1.55,3.96.63.23-.19.77-1.16.77-1.37v-8.82h2.53s.23.21.23.23v8.29c0,5.05-7.59,6.47-9.79,2.43-.12-.23-.64-1.5-.64-1.66v-9.28h2.61Z"/>
  <path class="cls-3" d="M48.23,45.03v2.92h4.14c-.05.37.16,2.3-.23,2.3h-3.91v3.07h4.68c.35,0,.35,2.3,0,2.3h-7.44v-12.89h7.44c.35,0,.35,2.3,0,2.3h-4.68Z"/>
  <path class="cls-3" d="M50.84,81.09v2.3h-4.75v2.92h4.14c-.05.37.16,2.3-.23,2.3h-3.91v3.07h4.75v2.3h-7.52v-12.89h7.52Z"/>
  <path class="cls-3" d="M23.39,81.09v2.3h-4.75v2.92h3.99v2.3h-3.99v3.07h4.52c.39,0,.18,1.93.23,2.3h-7.52v-12.89h7.52Z"/>
  <path class="cls-3" d="M53.75,61.91v2.3h-4.75v2.92h3.99v2.3h-3.99v3.07h4.52c.39,0,.18,1.93.23,2.3h-7.52v-12.89h7.52Z"/>
  <path class="cls-3" d="M140.72,61.91v2.3h-4.91v2.92h4.14v2.3h-4.14v3.07h4.68c.39,0,.18,1.93.23,2.3h-7.52v-12.89h7.52Z"/>
  <path class="cls-3" d="M32.28,42.73v2.3h-4.91v2.92h4.14v2.3h-4.14v3.07h4.68c.39,0,.18,1.93.23,2.3h-7.52v-12.89h7.52Z"/>
  <path class="cls-3" d="M3.91,55.62H1.3v-12.89h4.98c.59,0,1.95.55,2.45.92,1.99,1.49,1.81,4.95-.43,6.16-.19.1-1.32.59-1.41.59h-2.76s-.23.21-.23.23v4.99ZM3.91,48.26h2.22c.63,0,1.3-1,1.31-1.62.01-.49-.51-1.6-1-1.6h-2.53v3.22Z"/>
  <path class="cls-3" d="M66.79,83.39v2.92h4.14c-.05.37.16,2.3-.23,2.3h-3.91v5.37h-2.76v-12.66s.21-.23.23-.23h7.21c.35,0,.35,2.3,0,2.3h-4.68Z"/>
  <path class="cls-3" d="M43.02,42.73v2.3h-4.75v2.92h3.99v2.3h-3.99v5.14s-.21.23-.23.23h-2.53v-12.89h7.52Z"/>
  <path class="cls-3" d="M65.72,42.73v2.45h-3.83v10.43h-2.76v-10.43h-3.99v-2.22s.21-.23.23-.23h10.35Z"/>
  <path class="cls-3" d="M110.35,83.55h-3.99v10.43h-2.53s-.23-.21-.23-.23v-10.2h-3.83v-2.45h10.35s.23.21.23.23v2.22Z"/>
  <polygon class="cls-3" points="43.79 61.91 43.79 64.37 39.8 64.37 39.8 74.8 37.19 74.8 37.19 64.37 33.2 64.37 33.2 61.91 43.79 61.91"/>
  <polygon class="cls-3" points="97.31 61.91 97.31 64.37 93.33 64.37 93.33 74.8 90.72 74.8 90.72 64.37 86.73 64.37 86.73 61.91 97.31 61.91"/>
  <path class="cls-3" d="M56.82,91.52h4.75v2.45h-7.52v-12.89h2.53s.23.21.23.23v10.2Z"/>
  <path class="cls-3" d="M117.1,61.91v12.89h-2.53s-.23-.21-.23-.23v-12.43s.21-.23.23-.23h2.53Z"/>
  <rect class="cls-3" x="81.67" y="61.91" width="2.61" height="12.89"/>
  <path class="cls-3" d="M10.04,114.39c-.1.26-.24,1.78-.31,1.84-.06.06-.43.02-.54-.15-.23-.35.2-.92-.53-1.16-.55-.18-1.92-.18-2.31.31-.15.19-1.02,2.45-.91,2.54.56-.07,1.36.12,1.88-.03.41-.12.97-1.39,1.33-1.04.09.09-.67,2.29-.8,2.5-.14.23-.45.4-.58.26-.08-.09.2-.9-.25-1.05-.18-.06-1.77-.06-1.87,0-.13.08-1.13,2.72-.86,2.91.67.47,2.54-.02,3.24-.45.5-.31.8-.91,1.43-.95.03.79-.73,1.28-.92,1.99H1.3v-.46c.72.03,1.25-.1,1.66-.72.45-.66,1.29-3.1,1.56-3.96.15-.5.44-1.14.31-1.67-.09-.37-1.22.02-.93-.72h6.14Z"/>
  <path class="cls-3" d="M15.26,116.38c.09,1.18-.93.62-1.07.77-.07.07.05,1.2-.46,1.92-.69.98-1.44.74-2.06,1.16-1.17.8,1.12,1.14,1.55,1.34,2.66,1.2-.58,2.94-2.19,3.08-3.45.31-3.61-2.2-.52-2.9-.61-.58-.09-1.34.61-1.53-1.16-.82-1.15-2.06-.31-3.14,1.18-1.51,2.84-.49,4.45-.69ZM11.44,119.58c1.04.66,2.26-2.37,1.36-2.83-1.06-.54-1.85,2.51-1.36,2.83ZM10.62,122.08c-.28.06-.94.59-1.01.85-.39,1.39,3.26,1.12,3.49.25.17-.62-2.01-1.19-2.48-1.1Z"/>
  <path class="cls-3" d="M9.58,126.81c.02.37-.2,2.57-.77,2-.05-.05.11-1.15-.57-1.35-2.15-.65-2.3,1.41-2.81,2.88.52-.04,1.16.11,1.65-.11.15-.07,1.04-1.51,1.11-.88.04.36-.77,2.63-1,2.68-.6.01-.3-.99-.38-1.07-.06-.06-1.6-.04-1.7.1-.18.23-.8,2.14-.76,2.43.09.73,1.5.15,1.24,1H1.3c.02-.13-.03-.42,0-.46.06-.08,1.16,0,1.66-.72.33-.46,1.58-3.85,1.76-4.53.08-.31.19-.8.11-1.1-.05-.22-.86-.21-.93-.49-.03-.15.17-.38.23-.38h5.44Z"/>
  <path class="cls-3" d="M33.2,130.34c.79-.49,1.17-1.55,2.22-1.54,2.16.02-.62,3.75-.84,4.69.42,0,.72-.43,1-.69.39-.05.24.25.14.45-.21.45-.98,1.18-1.44,1.32-3.01.92.73-3.53.61-4.53-.73,0-1.59.73-1.97,1.33-.44.69-.93,2.86-1.29,3.24-.3.31-.97.12-1.05-.35-.12-.77,1.26-2.65,1.39-3.67.02-.18.09-.67-.23-.54l-.84.61c.26-1.72,2.3-2.96,2.3-.31Z"/>
  <path class="cls-3" d="M16.02,101.19c.23.55-1.14,2.99-.92,3.22.5-.09.8-.64,1.34-.74,2.01-.37.91,2.75.32,3.7-.88,1.42-3.46,3.61-4.42,1.12l2.27-6.03-.58-.97,1.99-.31ZM15.83,104.9c-.45.1-1.28.83-1.52,1.25-.34.59-1.32,2.71.07,2.53.5-.07,1.09-.68,1.37-1.09.38-.57,1.45-2.98.08-2.69Z"/>
  <path class="cls-3" d="M7.89,101.8c-.02.12.03.43,0,.46-.08.08-1.17-.07-1.72.81-.31.51-1.79,4.58-1.82,5.1-.06,1.41,1.98.45,2.6-.02.27-.2,1.24-1.42,1.55-1.14.14.13-1.11,2.18-1.3,2.45H1.3c-.17-.71.64-.51,1.13-.79.23-.13.38-.33.53-.54.42-.59,1.58-3.75,1.76-4.53.07-.28.22-.96.09-1.18-.18-.27-1.17.1-.9-.63h3.99Z"/>
  <path class="cls-3" d="M17.86,128.5c-.18.85-1.99,4.05-1.83,4.67.2.75,1.01-.6,1.22-.37-.44,1.81-2.29,3.1-2.38.31-2.58,3.53-3.64.48-1.54-2.15,1.27-1.58,1.83-1.45,3.49-2.03.32-.11.51-.6,1.03-.42ZM16.02,129.88c-1.34-.54-3.46,3.08-2.6,3.68,1.73-.44,2.16-2.18,2.6-3.68Z"/>
  <path class="cls-3" d="M20.01,115.92c.28.29-1.69,3.82-1.69,4.68s1.05-.57,1.23-.38c-.46,1.83-2.33,3.18-2.38.31-1.38,2.52-3.72,2.07-2.25-1.03.36-.76,1.36-1.92,2.07-2.38l3.02-1.2ZM18.32,117.3c-1.33-.61-3.59,3.37-2.52,3.68,1.65-.43,2.09-2.26,2.52-3.68Z"/>
  <path class="cls-3" d="M30.13,114.85l-.46,1.53h1.23s0,.77,0,.77c-.42.06-1.35-.16-1.61.15-.43.52-.8,2.91-1.3,3.61.63.24,1.65-1.12,1.76-1.16.85-.28-.06.95-.24,1.15-.41.48-1.09,1.04-1.71,1.2-2.65.7.21-3.77.34-4.88-.66-.23-1.08.26-.92-.69.4.01.76.04,1.13-.17.74-.42.71-1.85,1.78-1.52Z"/>
  <path class="cls-3" d="M29.83,102.27l-.31,1.53c.08.08,1.47-.25,1.23.54-.15.46-1.5.09-1.67.25-.15.13-.97,3.28-1.24,3.74.72.18,1.28-.75,1.77-1.15.61.04-.18,1.08-.31,1.23-.56.68-2.46,1.96-2.96.72l1.66-4.48c-.23-.15-1.17.07-1.07-.46.06-.33.95-.19,1.23-.31.65-.29.79-1.89,1.69-1.61Z"/>
  <path class="cls-3" d="M43.48,127.43c.12.11-.37,1.29-.46,1.53h1.38c.15,1.34-1.22.5-1.66.79-.18.11-1.06,3.38-1.4,3.81.13.1.75-.3.91-.39s1.42-1.24,1.24-.6c-.23.79-1.37,1.74-2.14,2-2.86.94-.02-3.4.15-4.6.07-.47-.62-.04-.85-.37-.51-.73.94-.45,1.28-.66.17-.1.97-2.06,1.57-1.5Z"/>
  <path class="cls-3" d="M21.24,127.43l-.31,1.53h1.23c.3,1.28-1.39.54-1.67.78-.15.13-.94,3.3-1.24,3.75.75-.07,1.27-.65,1.76-1.15.62.03-.27,1.18-.39,1.3-.44.47-2.42,1.71-2.74.74-.22-.66,1.28-3.72,1.51-4.58l-.92-.08c-.24-.99.7-.53,1.22-.85.47-.28.64-1.73,1.54-1.45Z"/>
  <path class="cls-3" d="M47.47,132.49c.29.31-1.47,2.51-2.57,2.2-2.99-.82,1.61-8.19,3.17-5.49,1.25,2.17-2.13,1.95-2.9,2.59-.28.23-.26,1.34.1,1.6.77.57,2.01-1.13,2.21-.91ZM46.98,129.75c-.4-.65-1.72.63-1.66,1.2.06.06,1.62-.26,1.67-.32.05-.06.05-.79,0-.88Z"/>
  <path class="cls-3" d="M34.39,105.76c-.28.24-2.88.78-3.01.98-.16.26-.1,1.5.4,1.64.95.28,1.67-1.24,2.04-.89.3.29-1.97,3.3-3.15,1.7-1.28-1.73,1.52-6.63,3.52-5.36.49.31.55,1.65.21,1.94ZM31.67,105.95c.55-.05,2.48-.44,1.61-1.23-.78-.71-1.76,1.09-1.61,1.23Z"/>
  <path class="cls-3" d="M18.82,106.75c-.31.31-.19,1.5.22,1.64.83.28,1.88-1.09,2.05-.9.03.75-1.24,2.05-1.93,2.14-3.01.4-.85-6.11,1.7-5.99,1.07.05,1.47,1.44.85,2.08-.38.4-2.52.67-2.88,1.03ZM20.76,105.47c.17-.24-.09-.8-.4-.89-.68-.19-1.19.83-1.42,1.36.08.06,1.77-.4,1.83-.47Z"/>
  <path class="cls-3" d="M22.96,131.76c-.31.26-.23,1.16.05,1.49.81.98,1.97-1.12,2.37-.76.18.17-1.75,3.14-3.15,2s.63-5.75,2.64-5.78c1.09-.02,1.63,1.46.9,2.11-.45.4-2.46.65-2.81.95ZM24.91,130.64c.15-.17-.02-.85-.29-.99-.76-.39-1.32.83-1.53,1.39.27-.07,1.76-.33,1.82-.4Z"/>
  <path class="cls-3" d="M31.7,119.17c-.41.84-.19,2.21,1,1.7.47-.2.71-.91,1.27-.96.39.45-1.84,3.29-3.07,1.92-1.39-1.56,1.53-6.97,3.54-5.39.49.39.58,1.48.14,1.85-.36.31-2.31.68-2.88.87ZM33.64,118.05c.24-.38-.12-1.07-.65-1.02-.47.04-1.32,1.35-1.17,1.5.28-.09,1.76-.38,1.82-.48Z"/>
  <path class="cls-3" d="M23.85,113.77l-2.61,7.13c.47.23.84-.53,1.17-.67.88-.36-.31,1.16-.51,1.34-.69.61-2.15,1.1-1.86-.32.35-1.76,2.02-4.29,2.26-6.04.12-.88-.19-.57-.36-.83-.09-.13-.13-.41-.08-.46.07-.07,1.69-.08,1.99-.15Z"/>
  <path class="cls-3" d="M11.27,130.19c.33-.25.36-.73.68-1.08.96-1.03,1.55,0,1.31,1.08-2.66-.61-2.47,3-3.46,4.29-.3.39-.99.35-1.13-.09-.23-.71,1.65-3.43,1.51-4.11-.15-.74-1.03.59-1.22.38.24-1.58,2.3-3.17,2.3-.46Z"/>
  <path class="cls-3" d="M28.41,128.85c.31.29.35,1.34.42,1.34.51-1.59,2.16-2.36,1.92,0-1.22-.18-1.7.15-2.26,1.19-.33.62-.89,2.81-1.19,3.11-.28.28-1.12.27-1.16-.23-.06-.86,1.56-2.99,1.54-3.85-.03-.98-1.05.44-1.22.24-.04-.7,1.25-2.46,1.95-1.8Z"/>
  <path class="cls-3" d="M24.61,105.18c.31-.2.35-.67.61-1,.54-.68,1.44-.81,1.47.17.04,1.09-.53.5-1.22.7-1.28.37-1.98,4.27-2.43,4.55-.28.18-.93-.03-1.03-.39-.17-.62,1.47-2.96,1.52-3.96.03-.82-1.06.57-1.23.38.2-1.7,2.36-3.2,2.3-.46Z"/>
  <path class="cls-3" d="M25.33,120.63c.09-.06.14-.35.28-.41.15-.07.47-.07.38.23-.18.62-2.05,2.33-2.54,1.62-.41-.6,1.27-3.85,1.46-4.69-.2-.19-1.6,1.4-1.37.62.26-.9,2.39-2.57,2.74-1.52.2.59-1.41,3.63-1.67,4.43.21.02.55-.16.72-.28Z"/>
  <path class="cls-3" d="M11.73,107.64c.1.83-1.99,2.62-2.54,1.85-.38-.53,1.22-3.78,1.47-4.54-.46-.33-.93.67-1,.7-.91.31.18-1.11.39-1.3.6-.54,2.24-1.33,1.95.11-.24,1.19-1.32,2.79-1.65,4.03l1.38-.84Z"/>
  <path class="cls-3" d="M39.62,128.83c.1.06.14.43.11.59-.23,1.13-1.42,2.76-1.62,3.91-.02.09-.04.25.08.23.17-.05,1.44-1.32,1.12-.42-.28.79-2.28,2.33-2.55,1.23-.16-.62,1.47-3.53,1.51-4.42-.16-.22-1.46,1.21-1.23.46s1.8-2.09,2.58-1.59Z"/>
  <path class="cls-3" d="M31.98,39.2c.07.27-.11.31-.23.46-.19.25-2,2.15-2.15,2.15h-2.22c.32-.8,1.09-1.6,1.69-2.23.13-.13.13-.38.15-.38h2.76Z"/>
  <path class="cls-1" d="M33.35,22.79c-.33.34-.69-.31-.78-.37-.16-.11-.78-.08-.35-.41.23-.18.86-.27.98-.76-.43-.18-.78-.02-1.23,0,.14-.5,1.86-.67,1.99-.22.1.35-.46.77-.57,1.11-.06.19-.01.63-.04.65Z"/>
  <path class="cls-3" d="M35.2,101.19c.04.27,0,.34-.16.53-.13.14-1.22,1.11-1.39,1.22-.19.12-.35.28-.6.24.21-1.17.74-2.34,2.15-1.99Z"/>
  <path class="cls-3" d="M35.35,113.77c.06.06.01.33-.1.47-.09.1-1.27,1.18-1.35,1.23-1.43.83-.06-1.45.22-1.62.18-.11,1.18-.12,1.23-.08Z"/>
  <path class="cls-3" d="M48.85,126.35c.06.26-.08.31-.23.46-.29.28-1.75,1.66-2.07,1.38-.08-.07.86-1.76.95-1.81.25-.15,1.01.03,1.35-.03Z"/>
  <path class="cls-3" d="M9.27,112.24c.4.38-1.91,1.9-2.15,1.69.31-1,.98-1.95,2.15-1.69Z"/>
  <path class="cls-3" d="M11.61,101.38c.66-.66,1.82.42,1.03,1.11s-1.6-.53-1.03-1.11Z"/>
  <path class="cls-3" d="M39.44,126.38c1.39-.49,1.46,1.71.16,1.33-.62-.19-.75-1.12-.16-1.33Z"/>
  <path class="cls-3" d="M26.1,113.8c1.15-.34,1.5,1.58.13,1.35-.73-.12-.73-1.17-.13-1.35Z"/>
</svg>