<?xml version="1.0" encoding="UTF-8"?>
<svg id="Calque_1" data-name="Calque 1" xmlns="http://www.w3.org/2000/svg" xmlns:xlink="http://www.w3.org/1999/xlink" viewBox="0 0 141.73 141.73">
  <defs>
    <style>
      .cls-1 {
        fill: none;
      }

      .cls-2 {
        fill: url(#linear-gradient-4);
      }

      .cls-3 {
        fill: url(#linear-gradient-3);
      }

      .cls-4 {
        fill: url(#linear-gradient-2);
      }

      .cls-5 {
        fill: #f6f6f6;
      }

      .cls-6 {
        fill: url(#linear-gradient);
      }

      .cls-7 {
        fill: #e5e5e5;
      }

      .cls-8 {
        fill: #c6c6c6;
      }

      .cls-9 {
        clip-path: url(#clippath-1);
      }

      .cls-10 {
        clip-path: url(#clippath-3);
      }

      .cls-11 {
        clip-path: url(#clippath-4);
      }

      .cls-12 {
        clip-path: url(#clippath-2);
      }

      .cls-13 {
        fill: #fff;
      }

      .cls-14 {
        fill: #646463;
      }

      .cls-15 {
        clip-path: url(#clippath);
      }
    </style>
    <clipPath id="clippath">
      <rect class="cls-1" x="2.71" y="52.6" width="27.79" height="34.99"/>
    </clipPath>
    <clipPath id="clippath-1">
      <path class="cls-1" d="M3.83,61.65v.18s-.04-.05-.04-.05c-1.03,3.5-.29,7.19.54,9.34,0,0,0,0,0,0,.04.11.04.11.08.21.46,1.16,1.69,2.84,3.18,4.63,1.78,2.14,3.93,4.4,5.59,6.07.62.62,1.18,1.18,1.65,1.64.04.04.08.07.11.11h.86c-4.94-10.75-2.8-25.42-2.18-28.95-6.88,1.15-9.79,6.81-9.79,6.81"/>
    </clipPath>
    <linearGradient id="linear-gradient" x1="-1095.42" y1="146.58" x2="-1095.24" y2="146.58" gradientTransform="translate(-75832.39 -10080.13) rotate(-180) scale(69.24 -69.24)" gradientUnits="userSpaceOnUse">
      <stop offset="0" stop-color="#fff"/>
      <stop offset=".66" stop-color="#fdfdfe"/>
      <stop offset=".9" stop-color="#f6f9fc"/>
      <stop offset="1" stop-color="#f0f5fb"/>
    </linearGradient>
    <clipPath id="clippath-2">
      <path class="cls-1" d="M17.38,83.79h.85s.02,0,.02,0c.5-.48,1.1-1.08,1.77-1.76,1.66-1.67,3.8-3.92,5.59-6.07,1.5-1.79,2.72-3.47,3.18-4.63.04-.1.04-.1.08-.21,0,0,0,0,0,0,.83-2.15,1.57-5.84.54-9.34l-.04.05v-.18s-2.91-5.66-9.79-6.81c.62,3.53,2.76,18.2-2.18,28.95"/>
    </clipPath>
    <linearGradient id="linear-gradient-2" x1="-1089.68" y1="146.58" x2="-1089.5" y2="146.58" gradientTransform="translate(75468.23 -10080.3) scale(69.24)" xlink:href="#linear-gradient"/>
    <clipPath id="clippath-3">
      <path class="cls-1" d="M24.97,71.52c-2.15,5.36-5.76,10.93-6.52,12.09,1.59-1.54,4.06-4.04,6.22-6.49.34-.38.66-.77.98-1.15,1.43-1.7,2.6-3.31,3.11-4.46.01-.03.02-.06.04-.08.02-.04.03-.07.04-.09,0,.01,0,.02,0-.03,0,0,.02-.04.07-.18.83-2.15,1.57-5.84.54-9.34l-.04-.13s-1.5-2.93-4.91-5c.71,2.56,2.45,9.96.48,14.87"/>
    </clipPath>
    <linearGradient id="linear-gradient-3" x1="-1092.62" y1="145.3" x2="-1092.44" y2="145.3" gradientTransform="translate(-92604.25 -12248.68) rotate(180) scale(84.78 -84.78)" gradientUnits="userSpaceOnUse">
      <stop offset="0" stop-color="#f0f5fb"/>
      <stop offset=".1" stop-color="#f6f9fc"/>
      <stop offset=".34" stop-color="#fdfdfe"/>
      <stop offset="1" stop-color="#fff"/>
    </linearGradient>
    <clipPath id="clippath-4">
      <path class="cls-1" d="M3.8,61.65l-.04.13c-1.03,3.5-.29,7.19.54,9.34,0,0,0,0,0,0,.04.11.04.11.08.21.46,1.16,1.69,2.84,3.18,4.63.48.57.98,1.15,1.49,1.73,2.03,2.26,4.26,4.5,5.72,5.92-.75-1.13-4.37-6.72-6.53-12.1-1.97-4.91-.23-12.31.48-14.87-3.4,2.07-4.91,5-4.91,5"/>
    </clipPath>
    <linearGradient id="linear-gradient-4" x1="-1094.73" y1="152.25" x2="-1094.55" y2="152.25" gradientTransform="translate(-47365.48 -6518.69) rotate(180) scale(43.28 -43.28)" xlink:href="#linear-gradient"/>
  </defs>
  <g>
    <path class="cls-7" d="M54.42,67.48v-.13c0-1.68-.52-3.1-1.55-4.07-1.16-1.1-2.9-1.68-4.97-1.68h-6.91v17.49h3.94v-5.68h2.26l3.36,5.68h4.45l-3.87-6.45c1.48-.71,3.29-2.13,3.29-5.16ZM50.48,67.54h0c0,1.61-1.1,2.58-2.9,2.58h-2.65v-5.1h2.65c1.87,0,2.9.84,2.9,2.52ZM109.73,61.54l-6.58,17.55h3.94l1.36-3.74h6.13l1.36,3.74h4.07l-6.58-17.55h-3.68ZM113.34,72.06h-3.74l1.87-5.36,1.87,5.36ZM131.41,70.19l5.23-8.52h-4.32l-3.1,5.55-3.03-5.55h-4.52l5.16,8.58-5.42,8.91h4.32l3.29-5.87,3.29,5.87h4.45l-5.36-8.97ZM62.49,75.74v-3.74h7.03v-3.36h-7.03v-3.61h7.94v-3.42h-11.81v17.49h7.36l1.81-3.36h-5.29ZM96.05,61.61l-3.94,5.68-4-5.68h-.06l-4,7.62v9.87h3.81v-10.84l4.13,5.36v.06h.19l4.19-5.42v10.84h3.81v-17.49h-4.13Z"/>
    <polygon class="cls-5" points="79.2 61.61 69.97 79.1 74.75 79.1 83.98 61.61 79.2 61.61"/>
    <g>
      <path class="cls-1" d="M138.7,61.22h0c-.58,0-1.03.52-1.03,1.1s.45,1.1,1.03,1.1,1.03-.45,1.03-1.1c0-.58-.45-1.1-1.03-1.1ZM139.03,63.09c-.06-.06-.06-.19-.13-.39-.06-.19-.13-.26-.32-.26h-.13v.65h-.26v-1.48c.13,0,.26-.06.39-.06.19,0,.39.06.45.13.06.06.13.13.13.32s-.13.32-.26.32h0c.13,0,.19.13.26.32.06.19.06.32.06.32h-.19v.13Z"/>
      <path class="cls-1" d="M138.96,62.06c0-.13-.06-.26-.39-.26h-.19v.52h.19c.26-.06.39-.13.39-.26Z"/>
      <path class="cls-8" d="M138.7,61.03h0c-.71,0-1.29.58-1.29,1.29s.58,1.29,1.29,1.29,1.29-.58,1.29-1.29-.58-1.29-1.29-1.29ZM138.7,63.41c-.58,0-1.03-.45-1.03-1.1,0-.58.45-1.1,1.03-1.1h0c.58,0,1.03.52,1.03,1.1s-.45,1.1-1.03,1.1ZM139.1,62.3l-.09.06c.13-.06.22-.17.22-.37,0-.13-.06-.26-.13-.32-.06-.06-.26-.13-.45-.13s-.32,0-.39.06v1.42h.26v-.65h.19c.19,0,.26.06.32.26.05.19.07.29.13.39h.26c0-.06-.23-.43-.28-.63-.03-.05,0,.03-.04-.1ZM138.64,62.25h-.19v-.45h.19c.26,0,.39.13.39.26-.06.13-.19.19-.39.19Z"/>
    </g>
  </g>
  <g>
    <g class="cls-15">
      <path class="cls-13" d="M14.98,84.26c-.11,0-.22-.04-.3-.12l-1.46-1.44c-.53-.53-1.06-1.07-1.58-1.61l-.22-.22-.19-.2-.2-.2-.2-.21-.2-.21-.2-.21-.2-.21-.2-.21-.2-.21-.2-.21-.19-.21-.19-.21c-.05-.06-.19-.21-.19-.21-.05-.06-.19-.2-.19-.2-.06-.06-.17-.19-.17-.19-2.58-2.88-4.17-5.03-4.72-6.4l-.03-.06s-.03-.07-.06-.15c0,0,0-.01,0-.02,0,0-.02-.04-.02-.07,0-.01,0-.03-.01-.04,0,0,0,0,0-.01-.48-1.27-.83-2.77-.97-4.22-.19-1.91-.04-3.7.44-5.34,0,0,0-.01,0-.02,0,0,.03-.08.03-.08.23-.81.59-1.63,1.05-2.45.91-1.57,1.91-2.56,2.59-3.12.64-.52,1.28-.9,1.72-1,.02,0,.03-.01.05-.03,1.56-1.42,3.36-1.63,4.3-1.63.16,0,.32,0,.46.02,0,0,0,0,0,0,.02,0,.04,0,.06-.02.95-.67,2.3-.75,2.83-.75.06,0,.11,0,.15,0h0s.09,0,.15,0c.53,0,1.88.07,2.83.75.02.01.04.02.06.02,0,0,0,0,0,0,.15-.01.3-.02.46-.02.94,0,2.74.21,4.3,1.64.01.01.03.02.05.02.45.11,1.08.47,1.71.99.68.56,1.68,1.55,2.59,3.12.48.83.83,1.66,1.06,2.46,0,.01.01.05.01.05,0,0,.01.04.01.04.01.04.02.08.03.12l.02.09s.02.06.02.09c.02.06.03.11.04.17v.04c.02.05.04.1.05.15,0,.03.01.06.02.09v.04c.03.08.04.15.06.23,0,.02.01.07.01.07.02.11.04.2.05.28v.02c.12.65.18,1.33.2,2.02h0c0,.12,0,.22,0,.32.01,2.79-.74,5.05-1.07,5.89-.01.04-.02.07-.03.09-.03.08-.04.11-.06.15l-.02.06s-.02.05-.03.07c0,0-.03.06-.03.08,0,.01-.02.04-.02.05-.02.03-.03.06-.04.09-.01.02-.02.05-.03.07,0,0-.04.07-.04.08-.02.03-.03.07-.05.1l-.02.04c-.09.17-.19.35-.3.54h0c-.75,1.25-2.04,2.91-3.83,4.93,0,0,0,0,0,0-.07.08-.13.15-.2.23h0c-.07.08-.13.16-.2.23h0c-.07.08-.13.16-.2.23h0c-.07.08-.13.16-.2.23h-.01c-.06.08-.13.16-.2.23h0c-.07.08-.13.16-.2.23h-.01c-.07.09-.13.16-.2.23h0c-.07.08-.14.15-.2.23,0,0-.14.15-.21.23l-.22.23c-.07.07-.21.22-.21.22-1.71,1.8-3.22,3.28-3.97,4.01-.08.08-.19.12-.3.12h-3.24Z"/>
      <path class="cls-13" d="M15.71,87.59c-.13,0-.24-.09-.27-.21l-.46-1.65c-.14-.02-.24-.14-.24-.29v-.2c0-.16.13-.29.29-.29h3.22c.16,0,.29.13.29.29v.2c0,.15-.11.27-.25.29l-.46,1.64c-.03.12-.15.21-.27.21h-1.84Z"/>
      <path class="cls-13" d="M20.08,87.35c-.63,0-1.12-.49-1.12-1.11s.5-1.11,1.12-1.11,1.12.5,1.12,1.11-.49,1.11-1.12,1.11"/>
      <path class="cls-13" d="M20.08,85.24c.56,0,1,.44,1,1s-.44,1-1.01,1-1.01-.44-1.01-1,.45-1,1.01-1h0Z"/>
      <path class="cls-13" d="M4.32,71.13c.04.11.04.11.08.21.46,1.16,1.69,2.84,3.18,4.63,1.78,2.14,3.93,4.4,5.59,6.07.62.62,1.18,1.18,1.65,1.65,0,0,0,0,0,0,.04.04.07.07.11.1h1.62s0,0,0,0h1.52s.1,0,.1,0c2.6-2.5,8.08-8.01,10.08-11.32.11-.18.21-.35.29-.52,0-.02.02-.03.03-.05.01-.03.03-.05.04-.08.01-.02.02-.05.03-.07.01-.02.02-.04.03-.07.01-.03.03-.06.04-.08,0-.02.02-.03.02-.05.02-.05.04-.09.06-.13,0-.01,0-.02.01-.03.01-.04.02-.06.03-.08.02-.05.03-.1.03-.1.86-2.18,1.63-5.95.55-9.51,0,0-2.6-7.05-12.77-7.05-9.08-.31-12.83,7-12.83,7v.18s-.04-.05-.04-.05c-1.03,3.5-.29,7.19.54,9.34,0,0,0,0,0,0"/>
    </g>
    <g class="cls-9">
      <rect class="cls-6" x="2.75" y="54.84" width="13.04" height="28.95"/>
    </g>
    <g class="cls-12">
      <rect class="cls-4" x="17.38" y="54.84" width="13.04" height="28.95"/>
    </g>
    <g class="cls-10">
      <rect class="cls-3" x="15.78" y="55.7" width="17.37" height="28.87" transform="translate(-14.05 6.62) rotate(-12)"/>
    </g>
    <g class="cls-11">
      <rect class="cls-2" x=".05" y="55.69" width="17.38" height="28.88" transform="translate(-14.39 3.35) rotate(-12)"/>
    </g>
    <path class="cls-5" d="M16.6,53.03c-.32-.01-1.94-.02-2.89.78,0,0-2.65-.43-4.76,1.59-.5,0-2.54,1.16-4.15,3.93-.44.77-.79,1.56-1.02,2.36.32-.42,1.54-2.1,4.13-1.86.18-.14,1.79-1.9,5.14-1.29.46-.48,2.14-.99,3.54-1.01,1.4.02,3.08.53,3.54,1.01,3.35-.61,4.96,1.15,5.14,1.29,2.59-.23,3.82,1.44,4.14,1.86-.23-.81-.58-1.6-1.02-2.36-1.61-2.77-3.65-3.93-4.15-3.93-2.1-2.02-4.76-1.59-4.76-1.59-.95-.8-2.58-.79-2.89-.78"/>
    <path class="cls-7" d="M13.71,53.81s-2.65-.43-4.76,1.59c-.5,0-2.54,1.16-4.15,3.93-.44.77-.79,1.56-1.02,2.36.32-.42,1.54-2.1,4.13-1.86.18-.14,1.79-1.89,5.13-1.29.32-2.69.67-4.73.67-4.73"/>
    <path class="cls-8" d="M7.91,59.84s0,0,0,0c.48-2.52,1.03-4.43,1.03-4.43-.5,0-2.54,1.16-4.15,3.93-.44.77-.79,1.56-1.02,2.36.32-.42,1.54-2.1,4.13-1.86"/>
    <path class="cls-7" d="M19.49,53.81s2.65-.43,4.76,1.59c.5,0,2.54,1.16,4.15,3.93.44.77.79,1.56,1.02,2.36-.32-.42-1.55-2.09-4.14-1.86-.18-.14-1.79-1.89-5.13-1.29-.32-2.69-.67-4.73-.67-4.73"/>
    <path class="cls-8" d="M25.28,59.84s0,0,0,0c-.48-2.52-1.03-4.43-1.03-4.43.5,0,2.54,1.16,4.15,3.93.44.77.79,1.56,1.02,2.36-.32-.42-1.55-2.09-4.14-1.86"/>
    <polygon class="cls-8" points="16.64 85.38 16.61 85.38 15.16 85.38 15.18 85.42 15.71 87.3 16.64 87.3 16.64 85.38"/>
    <polygon class="cls-5" points="16.61 85.38 16.65 85.38 18.09 85.38 18.07 85.42 17.55 87.3 16.61 87.3 16.61 85.38"/>
    <polyline class="cls-5" points="18.24 85.45 15.02 85.45 15.01 85.45 15.01 85.24 15.02 85.24 18.24 85.24 18.25 85.24 18.25 85.45 18.24 85.45"/>
    <polygon class="cls-8" points="18.05 85.51 18.06 85.45 15.19 85.45 15.21 85.51 18.05 85.51"/>
    <path class="cls-5" d="M25.49,69.73s-1.67-1.71-4.94-1.41c-.18-.11-1.39-.75-3.95-.89-2.36.05-3.77.78-3.95.89-3.26-.3-4.9,1.41-4.94,1.41-1.96-.05-3.28,1.32-3.39,1.48.04.11.04.11.08.21,1.23,3.05,7.69,9.62,10.58,12.42h3.24c2.89-2.8,9.35-9.36,10.58-12.42.04-.1.04-.1.08-.21-.12-.16-1.43-1.53-3.39-1.48"/>
    <path class="cls-7" d="M20.55,68.32c3.26-.3,4.9,1.41,4.94,1.41,1.96-.05,3.28,1.32,3.39,1.48-.04.11-.04.11-.08.21-1.23,3.05-7.69,9.62-10.58,12.41h-.89c2.25-4.83,3.06-10.46,3.22-15.51h0Z"/>
    <path class="cls-8" d="M25.49,69.73h0c1.96-.05,3.28,1.32,3.39,1.48-.04.11-.04.11-.08.21-1.23,3.05-7.69,9.62-10.58,12.42,0,0,4.28-6.27,6.72-12.28.23-.58.42-1.19.55-1.82"/>
    <path class="cls-7" d="M12.64,68.32c-3.26-.3-4.9,1.41-4.94,1.41-1.96-.05-3.28,1.32-3.39,1.48.04.11.04.11.08.21,1.23,3.05,7.69,9.62,10.58,12.41h.89c-2.25-4.83-3.06-10.46-3.22-15.51h0Z"/>
    <path class="cls-8" d="M7.71,69.73h0c-1.96-.05-3.28,1.32-3.39,1.48.04.11.04.11.08.21,1.23,3.05,7.69,9.62,10.58,12.42,0,0-4.28-6.27-6.72-12.28-.23-.58-.42-1.19-.55-1.82"/>
    <path class="cls-7" d="M9.45,63.39s0-.01,0-.02c-.01-.35-.14-.62-.36-.76-.25-.16-.61-.17-1.05-.03-.47.16-.95.33-1.41.51.07,1.21.13,2.43.2,3.64.31-.12.47-.18.78-.3-.02-.47-.04-.71-.06-1.19.18-.07.27-.1.45-.16.29.38.44.58.73.97.36-.11.55-.17.91-.27-.28-.38-.56-.75-.85-1.12.4-.3.67-.76.64-1.28M8.64,63.64s0,0,0,0c.01.33-.2.6-.57.72-.22.07-.33.11-.55.19-.02-.42-.03-.64-.05-1.06.21-.08.32-.11.54-.19.4-.13.62-.01.63.33"/>
    <path class="cls-7" d="M21.16,61.49c-.5,1.16-.98,2.33-1.46,3.51.33.04.5.06.82.1.12-.3.18-.45.29-.75.51.08.77.12,1.28.22.1.34.15.51.26.85.33.07.5.11.83.19-.41-1.33-.82-2.66-1.25-3.98-.31-.06-.47-.09-.78-.14M21.88,63.83c-.31-.06-.47-.09-.79-.14.17-.42.25-.64.43-1.06.15.48.22.72.36,1.19"/>
    <path class="cls-7" d="M25.74,64.46c.38-.47.76-.93,1.15-1.39-.35-.14-.53-.21-.89-.33-.28.37-.41.56-.69.94-.19-.45-.38-.9-.58-1.35-.37-.11-.55-.16-.93-.26.34.7.67,1.4,1,2.1-.4.51-.8,1.02-1.18,1.54.36.09.53.14.89.25.29-.41.43-.61.73-1.01.2.48.41.97.6,1.45.36.13.54.19.89.33-.32-.76-.66-1.52-1-2.27"/>
    <path class="cls-7" d="M11.31,64.68c0-.31-.01-.47-.02-.78.48-.1.98-.19,1.47-.26,0-.28,0-.43-.02-.71-.49.07-.98.16-1.47.26,0-.3-.01-.45-.02-.75.56-.11,1.12-.21,1.68-.29,0-.28,0-.43-.01-.71-.84.13-1.67.29-2.5.47.04,1.22.08,2.44.13,3.66.5-.12,1.01-.23,1.52-.32.14-.31.21-.47.35-.77-.44.07-.66.11-1.09.2"/>
    <path class="cls-7" d="M18.23,61.2c-.29.38-.57.77-.85,1.16-.28-.4-.57-.8-.85-1.2h0c-.29.54-.57,1.08-.85,1.62,0,.69,0,1.38.01,2.07.32-.01.48-.02.8-.02,0-.76,0-1.52,0-2.28.29.37.58.75.87,1.13,0,0,0,0,0,0,.01,0,.02,0,.03,0,.29-.37.59-.74.89-1.11,0,.76-.01,1.52-.02,2.29.32.02.48.03.8.06.02-1.22.03-2.45.05-3.67-.35-.03-.52-.04-.87-.06"/>
    <path class="cls-5" d="M13.79,65c.62-1.29,1.26-2.57,1.92-3.85-.41.02-.61.03-1.02.06-.65,1.3-1.28,2.6-1.9,3.92.4-.06.59-.08.99-.13"/>
    <path class="cls-14" d="M20.08,85.24c.56,0,1,.44,1,1s-.44,1-1.01,1-1.01-.44-1.01-1,.45-1,1.01-1h0ZM20.08,85.4c-.45,0-.82.38-.82.84s.37.85.82.85c.45,0,.82-.37.82-.85s-.36-.85-.82-.85h0ZM19.89,86.82h-.18v-1.12c.09-.01.19-.03.32-.03.17,0,.29.04.35.08.07.05.1.12.1.23,0,.15-.1.24-.22.27h0c.1.03.17.12.19.28.03.17.05.24.07.28h-.19s-.05-.14-.08-.28c-.03-.14-.1-.2-.25-.2h-.13v.48ZM19.89,86.2h.13c.15,0,.28-.05.28-.19,0-.1-.07-.2-.28-.2-.06,0-.1,0-.13,0v.38Z"/>
    <rect class="cls-1" x="2.71" y="52.6" width="27.79" height="34.99"/>
  </g>
</svg>