<?xml version="1.0" encoding="UTF-8"?>
<svg id="Calque_1" data-name="Calque 1" xmlns="http://www.w3.org/2000/svg" viewBox="0 0 481.82 481.82">
  <defs>
    <style>
      .cls-1 {
        fill: #f6f6f6;
      }

      .cls-1, .cls-2 {
        stroke: #e5e5e5;
        stroke-miterlimit: 10;
        stroke-width: 2px;
      }

      .cls-3 {
        fill: #f6f6f6;
      }

      .cls-4 {
        fill: #e5e5e5;
      }

      .cls-5, .cls-2 {
        fill: #fff;
      }
    </style>
  </defs>
  <g transform="translate(0, 160)">
    <polygon class="cls-4" points="12.05 104.67 481.82 104.67 469.77 144.47 0 144.47 12.05 104.67"/>
    <path class="cls-3" d="M8.19,138.26l9.09-28.74h32.86c.5.37.89.78,1.21,1.21,4.19,5.68-3.72,17.43-4.49,18.55l-2.55.97,4,8.73h-13.76l-4.19-9.03-2.98-.13,2.43-7.03,9.16.04,1.71-5.81-11.67-.17-7.4,22.12H7.99l.2-.73Z"/>
    <polygon class="cls-3" points="58.81 109.52 94.57 109.52 85.4 138.99 51.56 138.99 58.81 109.52"/>
    <polygon class="cls-4" points="67.98 116.77 80.07 116.77 75.57 131.69 64.56 131.69 67.98 116.77"/>
    <path class="cls-3" d="M99.51,109.52h34.33c.72,0,1.24.69,1.05,1.39l-1.27,4.43c-.13.47-.56.79-1.05.79h-21.87c-.47,0-.88.3-1.03.74l-3.97,11.78c-.04.11-.06.23-.06.35v1.72c0,.22.07.43.19.61l.5.74c.2.3.54.47.9.47h9.64c.36,0,.69-.17.89-.47l.58-.84c.12-.17.18-.37.19-.57l.07-1.67c.03-.59-.43-1.1-1.02-1.13h0c-.66-.04-1.13-.64-1-1.29l.89-4.66c.1-.51.55-.88,1.07-.88h12.72c.72,0,1.24.69,1.05,1.39l-4.53,15.78c-.13.47-.56.79-1.05.79h-31.45c-.23,0-.45-.07-.64-.21l-.76-.56c-1.39-1.01-2.21-2.62-2.21-4.34v-2.66c0-.12.02-.23.05-.34l6.75-20.61c.15-.45.56-.75,1.03-.75Z"/>
    <path class="cls-3" d="M139.8,109.6c2.5-.22,33.09,0,36.94-.08.37,0,.45.03.2.78-.5,1.44-1.49,4.25-1.95,5.56-.28.68-.29,1.2-.97,1.22-2.15.03-18.42-.05-22.96.04-.45.18-.36.74-.42,1.58.05.93-.2,1.79.59,1.96,1.35.07,2.79.05,5.04.1,4.14.07,9.4.14,10.97.18.57-.02.61.3.42.84-.32.95-.99,2.76-1.38,3.86-.48,1.04-.38,1.95-1.37,2.09-2.26.03-14.24-.02-16.49.03-.38.03-.53.22-.58.81.01.99-.21,2.8.16,3.7,2.56.44,16.87-.02,22.61.17.36.06.26.39.2.73-.23.97-1.01,3.83-1.32,4.94-.21.58-.18.82-.63.88-2.41.01-20.74,0-29.23-.01-3.63-.11-4.93.74-6.26-2.29-1.16-2.57-.56-5.51.24-8.05.8-2.44,4.8-15.12,6.17-19.01l.02-.02Z"/>
    <path class="cls-3" d="M171.45,138.24l9.09-28.74h32.86c.5.37.89.78,1.21,1.21,4.19,5.68-3.72,17.43-4.49,18.55l-2.55.97,4,8.73h-13.76l-4.19-9.03-2.98-.13,2.43-7.03,9.16.04,1.71-5.81-11.67-.17-7.4,22.12h-13.63l.2-.73Z"/>
    <path class="cls-3" d="M332.4,138.24l9.09-28.74h32.86c.5.37.89.78,1.21,1.21,4.19,5.68-3.72,17.43-4.49,18.55l-2.55.97,4,8.73h-13.76l-4.19-9.03-2.98-.13,2.43-7.03,9.16.04,1.71-5.81-11.67-.17-7.4,22.12h-13.63l.2-.73Z"/>
    <polygon class="cls-3" points="240.64 109.94 253.93 109.94 259.21 124.97 273.37 109.94 289.4 109.94 280.45 139.07 267.29 139.07 267.56 131.92 260.88 139.07 247.32 139.07 240.64 109.94"/>
    <path class="cls-3" d="M330.02,139.35h-14.21c-.53,0-.98-.36-1.11-.87l-.93-3.87c-.12-.51-.58-.87-1.1-.87l-8.06-.05c-.96,0-1.48-1.12-.87-1.86l3.49-4.25c.22-.26.54-.42.88-.42h2.68c.61,0,1.12-.49,1.14-1.1l.02-.63c0-.13-.01-.27-.06-.39l-.92-2.8c-.15-.45-.56-.76-1.03-.78h0c-.36-.02-.7.14-.93.41l-14.05,17.06c-.22.26-.54.41-.88.41h-10.93l.53-.82s.06-.09.1-.13l24.86-28.07c.22-.24.53-.38.85-.38h11.47c.91,0,1.84.72,2.07,1.61l5.7,22.7"/>
    <polygon class="cls-3" points="378.74 118.88 381.77 109.5 418.14 109.59 415.59 118.88 402.78 118.88 396.7 138.96 384.46 138.96 390.54 118.88 378.74 118.88"/>
    <polygon class="cls-3" points="420.87 109.5 434.7 109.5 425.05 138.96 412.37 138.96 420.87 109.5"/>
    <polygon class="cls-3" points="437.13 113.29 442.32 123.86 438.36 139.83 429.59 139.83 437.13 113.29"/>
    <polygon class="cls-3" points="437.65 110.78 449.26 110.78 458.1 128.32 462.83 110.78 473.73 110.78 464.65 139.83 451.71 139.83 437.65 110.78"/>
    <polygon class="cls-1" points="246.26 19.9 293.41 19.9 268.63 92.51 220 92.51 246.26 19.9"/>
    <polygon class="cls-4" points="216.65 0 266.78 0 240.45 82.9 188.74 82.9 216.65 0"/>
    <path class="cls-5" d="M209.79,38.35l9.09-28.74h32.86c.5.37.89.78,1.21,1.21,4.19,5.68-3.72,17.43-4.49,18.55l-2.55.97,4,8.73h-13.76l-4.19-9.03-2.98-.13,2.43-7.03,9.16.04,1.71-5.81-11.67-.17-7.4,22.12h-13.63l.2-.73Z"/>
    <polygon class="cls-2" points="225.76 42.24 239.68 42.24 245.21 57.98 260.04 42.24 276.83 42.24 267.45 72.74 253.67 72.74 253.95 65.25 246.96 72.74 232.76 72.74 225.76 42.24"/>
    <polygon class="cls-5" points="225.11 45.72 228.65 61.32 225.47 72.74 215.89 72.74 225.11 45.72"/>
    <g>
      <path class="cls-5" d="M200.45,68.64l1.37-3.84c.76-2.12,2.47-2.54,3.96-2.14,1.29.34,1.93,1.08,2.06,1.77.5-.51,1.58-1.07,3.06-.67,1.92.51,2.94,2.06,2.3,3.89l-1.37,3.93-11.39-2.94ZM206.26,66.2c.32-.9-.08-1.41-.89-1.62s-1.43.15-1.69.87l-.65,1.82,2.61.68.62-1.75ZM210.61,69.25l.6-1.7c.36-1.02-.04-1.62-1.05-1.89-.92-.24-1.65.06-2.01,1.1l-.6,1.7,3.07.8Z"/>
      <path class="cls-5" d="M206.66,57.42l-.94,2.64-2.02-.55,2.55-7.15,2,.56-.93,2.62,9.2,2.55-.64,1.85-9.22-2.53Z"/>
      <path class="cls-5" d="M207.17,49.81l1.27-3.55c.65-1.82,2.42-2.65,4.54-2.03,2.41.71,3.03,2.42,2.44,4.1l-.58,1.64,4.11,1.18-.64,1.83-11.14-3.18ZM212.92,49.42l.5-1.41c.3-.85.08-1.58-1.05-1.91s-1.82.18-2.09.96l-.52,1.45,3.16.91Z"/>
    </g>
    <polygon class="cls-3" points="238.98 112.85 242.52 128.45 239.34 139.87 229.76 139.87 238.98 112.85"/>
  </g>
</svg>