<?xml version="1.0" encoding="UTF-8"?>
<svg
  id="Calque_1"
  data-name="Calque 1"
  xmlns="http://www.w3.org/2000/svg"
  viewBox="0 0 465.74 139.87"
  width="112"
  height="112"
  preserveAspectRatio="xMidYMid meet"
>
  <defs>
    <style>
      .cls-1 {
        stroke: #ccc;
        stroke-miterlimit: 10;
        stroke-width: 2px;
      }

      .cls-1, .cls-2 {
        fill: #fff;
      }

      .cls-3 {
        fill: #ccc;
      }

      .cls-4 {
        fill: #030243;
      }
    </style>
  </defs>
  <path class="cls-2" d="M.2,138.26l9.09-28.74h32.86c.5.37.89.78,1.21,1.21,4.19,5.68-3.72,17.43-4.49,18.55l-2.55.97,4,8.73h-13.76l-4.19-9.03-2.98-.13,2.43-7.03,9.16.04,1.71-5.81-11.67-.17-7.4,22.12H0l.2-.73v.02Z"/>
  <path class="cls-2" d="M50.82,109.52l-7.25,29.47h33.84l9.17-29.47h-35.76ZM67.58,131.69h-11.01l3.42-14.92h12.09l-4.5,14.92Z"/>
  <path class="cls-2" d="M91.52,109.52h34.33c.72,0,1.24.69,1.05,1.39l-1.27,4.43c-.13.47-.56.79-1.05.79h-21.87c-.47,0-.88.3-1.03.74l-3.97,11.78c-.04.11-.06.23-.06.35v1.72c0,.22.07.43.19.61l.5.74c.2.3.54.47.9.47h9.64c.36,0,.69-.17.89-.47l.58-.84c.12-.17.18-.37.19-.57l.07-1.67c.03-.59-.43-1.1-1.02-1.13h0c-.66-.04-1.13-.64-1-1.29l.89-4.66c.1-.51.55-.88,1.07-.88h12.72c.72,0,1.24.69,1.05,1.39l-4.53,15.78c-.13.47-.56.79-1.05.79h-31.45c-.23,0-.45-.07-.64-.21l-.76-.56c-1.39-1.01-2.21-2.62-2.21-4.34v-2.66c0-.12.02-.23.05-.34l6.75-20.61c.15-.45.56-.75,1.03-.75h.01Z"/>
  <path class="cls-2" d="M131.81,109.6c2.5-.22,33.09,0,36.94-.08.37,0,.45.03.2.78-.5,1.44-1.49,4.25-1.95,5.56-.28.68-.29,1.2-.97,1.22-2.15.03-18.42-.05-22.96.04-.45.18-.36.74-.42,1.58.05.93-.2,1.79.59,1.96,1.35.07,2.79.05,5.04.1,4.14.07,9.4.14,10.97.18.57-.02.61.3.42.84-.32.95-.99,2.76-1.38,3.86-.48,1.04-.38,1.95-1.37,2.09-2.26.03-14.24-.02-16.49.03-.38.03-.53.22-.58.81,0,.99-.21,2.8.16,3.7,2.56.44,16.87-.02,22.61.17.36.06.26.39.2.73-.23.97-1.01,3.83-1.32,4.94-.21.58-.18.82-.63.88-2.41,0-20.74,0-29.23,0-3.63-.11-4.93.74-6.26-2.29-1.16-2.57-.56-5.51.24-8.05.8-2.44,4.8-15.12,6.17-19.01l.02-.02h0Z"/>
  <path class="cls-2" d="M163.46,138.24l9.09-28.74h32.86c.5.37.89.78,1.21,1.21,4.19,5.68-3.72,17.43-4.49,18.55l-2.55.97,4,8.73h-13.76l-4.19-9.03-2.98-.13,2.43-7.03,9.16.04,1.71-5.81-11.67-.17-7.4,22.12h-13.63l.2-.73v.02Z"/>
  <path class="cls-2" d="M324.41,138.24l9.09-28.74h32.86c.5.37.89.78,1.21,1.21,4.19,5.68-3.72,17.43-4.49,18.55l-2.55.97,4,8.73h-13.76l-4.19-9.03-2.98-.13,2.43-7.03,9.16.04,1.71-5.81-11.67-.17-7.4,22.12h-13.63l.2-.73v.02Z"/>
  <polygon class="cls-2" points="232.65 109.94 245.94 109.94 251.22 124.97 265.38 109.94 281.41 109.94 272.46 139.07 259.3 139.07 259.57 131.92 252.89 139.07 239.33 139.07 232.65 109.94"/>
  <path class="cls-2" d="M322.03,139.35h-14.21c-.53,0-.98-.36-1.11-.87l-.93-3.87c-.12-.51-.58-.87-1.1-.87l-8.06-.05c-.96,0-1.48-1.12-.87-1.86l3.49-4.25c.22-.26.54-.42.88-.42h2.68c.61,0,1.12-.49,1.14-1.1l.02-.63c0-.13-.01-.27-.06-.39l-.92-2.8c-.15-.45-.56-.76-1.03-.78h0c-.36-.02-.7.14-.93.41l-14.05,17.06c-.22.26-.54.41-.88.41h-10.93l.53-.82s.06-.09.1-.13l24.86-28.07c.22-.24.53-.38.85-.38h11.47c.91,0,1.84.72,2.07,1.61l5.7,22.7"/>
  <polygon class="cls-2" points="370.75 118.88 373.78 109.5 410.15 109.59 407.6 118.88 394.79 118.88 388.71 138.96 376.47 138.96 382.55 118.88 370.75 118.88"/>
  <polygon class="cls-2" points="412.88 109.5 426.71 109.5 417.06 138.96 404.38 138.96 412.88 109.5"/>
  <polygon class="cls-2" points="429.14 113.29 434.33 123.86 430.37 139.83 421.6 139.83 429.14 113.29"/>
  <polygon class="cls-2" points="429.66 110.78 441.27 110.78 450.11 128.32 454.84 110.78 465.74 110.78 456.66 139.83 443.72 139.83 429.66 110.78"/>
  <polygon class="cls-1" points="238.27 19.9 285.42 19.9 260.64 92.51 212.01 92.51 238.27 19.9"/>
  <polygon class="cls-3" points="208.66 0 258.79 0 232.46 82.9 180.75 82.9 208.66 0"/>
  <path class="cls-4" d="M201.8,38.35l9.09-28.74h32.86c.5.37.89.78,1.21,1.21,4.19,5.68-3.72,17.43-4.49,18.55l-2.55.97,4,8.73h-13.76l-4.19-9.03-2.98-.13,2.43-7.03,9.16.04,1.71-5.81-11.67-.17-7.4,22.12h-13.63l.2-.73v.02Z"/>
  <polygon class="cls-4" points="217.77 42.24 231.69 42.24 237.22 57.98 252.05 42.24 268.84 42.24 259.46 72.74 245.68 72.74 245.96 65.25 238.97 72.74 224.77 72.74 217.77 42.24"/>
  <path class="cls-3" d="M260.2,73.74h-15.56l.22-5.85-5.46,5.85h-15.43l-7.46-32.5h15.88l5.22,14.86,14-14.86h18.58l-10,32.5ZM246.72,71.74h12l8.76-28.5h-15l-15.66,16.62-5.84-16.62h-11.96l6.54,28.5h12.97l8.52-9.13-.34,9.13Z"/>
  <polygon class="cls-4" points="217.12 45.72 220.66 61.32 217.48 72.74 207.9 72.74 217.12 45.72"/>
  <g>
    <path class="cls-4" d="M192.46,68.64l1.37-3.84c.76-2.12,2.47-2.54,3.96-2.14,1.29.34,1.93,1.08,2.06,1.77.5-.51,1.58-1.07,3.06-.67,1.92.51,2.94,2.06,2.3,3.89l-1.37,3.93-11.39-2.94h0ZM198.27,66.2c.32-.9-.08-1.41-.89-1.62s-1.43.15-1.69.87l-.65,1.82,2.61.68.62-1.75ZM202.62,69.25l.6-1.7c.36-1.02-.04-1.62-1.05-1.89-.92-.24-1.65.06-2.01,1.1l-.6,1.7,3.07.8h-.01Z"/>
    <path class="cls-4" d="M198.67,57.42l-.94,2.64-2.02-.55,2.55-7.15,2,.56-.93,2.62,9.2,2.55-.64,1.85-9.22-2.53h0Z"/>
    <path class="cls-4" d="M199.18,49.81l1.27-3.55c.65-1.82,2.42-2.65,4.54-2.03,2.41.71,3.03,2.42,2.44,4.1l-.58,1.64,4.11,1.18-.64,1.83-11.14-3.18h0ZM204.93,49.42l.5-1.41c.3-.85.08-1.58-1.05-1.91s-1.82.18-2.09.96l-.52,1.45,3.16.91Z"/>
  </g>
  <polygon class="cls-2" points="230.99 112.85 234.53 128.45 231.35 139.87 221.77 139.87 230.99 112.85"/>
</svg>