<?xml version="1.0" encoding="UTF-8"?>
<svg id="Calque_1" data-name="Calque 1" xmlns="http://www.w3.org/2000/svg" viewBox="0 0 141.73 141.73">
  <defs>
    <style>
      .cls-1 {
        fill: #e5e5e5;
      }

      .cls-2 {
        fill: #fff;
      }
    </style>
  </defs>
  <g>
    <path class="cls-1" d="M56.24,76.5c.84.84,1.19,1.29,2.33,1.77,3.12-.21,11.84-1.63,13.85-5.76-3.84,3.07-9.86,4.4-13.63,4.39-.81,0-1.55-.14-2.55-.4Z"/>
    <path class="cls-1" d="M96.53,32.19c-1.12-.38-2.15-1.03-3.36-1.13.75.84,2.33,1.31,3.36,1.13Z"/>
    <path class="cls-1" d="M83.22,48.14c1.03,4.69,6.29,6.22,10.55,5.35-4.08-.54-7.8-1.39-10.55-5.35Z"/>
    <path class="cls-1" d="M91.99,56.38c.12,1.41.36,2.71,1.58,3.37-.28-1.03-.45-2.61-.64-4.02-.62-.27-.99,0-.94.65Z"/>
    <path class="cls-1" d="M52.54,57.23c-1.74,1.16-2.57,2.58-3,4.29-.4,1.59-.57,3.17-.01,4.86.29-3.36,1.04-6.54,3.01-9.15Z"/>
    <path class="cls-1" d="M29.14,74.19l.47.47c2.9-1.67,5.62-4.72,7.3-7.52.91,1.33,1.82,1.56,2.81,1.29-.93-.66-1.49-2.06-2.71-2.06-2.16,2.8-4.87,5.6-7.87,7.83Z"/>
    <path class="cls-1" d="M49.15,68.9c-.38,2.31.91,4.46,1.76,6.08,1.05,1.92,2.33,3.18,4.01,3.37-3.72-2.33-3.16-6.73-5.77-9.45Z"/>
    <path class="cls-1" d="M139.87,78.53c-.18-.89-.86-2.12-2.55-2.71-6.33.11-10.29-5.04-14.67-9.36-4.09-4.04-4.78-4.88-5.33-14.79-1.59-2.81-1.94-6.08-2.4-9.35-.45-3.08-4.28-5.88-1.69-9.41-1.96-3.71-4.02-8.38-4.99-11.58-4.2-2.72-2.14-10.06-8.11-10.45l-1.78.46c-4.48-2.91-10.18-.67-14.11,1.74-1.87,1.21-6.37-.88-6.41,2.66,2.26,4.61-4.13,5.71-6.01,9.19.22.83.27,1.68.27,2.34,0,2.23-1.29,5.74-1.29,7.62,0,1.04.18,1.86.54,2.49,0,2.33-3.64,5.67-3.64,5.67.22,2.38.64,4.05-1.85,5.07-6.02,2.45-12.36,2.5-17.94,5.21-1.64.8-3.11,1.97-3.75,2.5-.84-.56-1.91-.89-3.27-.89-7.82,0-17.03,12.44-18.23,19.86-9.71,1.86-20.68,4.28-20.68,9.97,0,3.64,4.69,5.47,11.74,5.47,6.62,0,12.71-2.21,15.62-7.31.45-.8,1-1.48,1.61-2.06,2.52-2.38,6.15-2.94,9.32-3.02,3.82-.1,5.33,1.47,5.98,3.74-5.33-.13-10.31-.29-13.65-.51,0,1.64,1.2,2.24,4.63,2.28,1.63.02,19.66-.15,31.01-.17,0,0,2.23,0,3.97,0,1.74,0,3.97,0,3.97,0,11.36.02,29.39.19,31.02.17,3.43-.04,4.63-.64,4.63-2.28-9.93.64-34.38.84-39.62.88-1.06,0-2.91-.02-5.25-.04,5.5-.89,12.75-3.34,18.67-6.42,5.02-2.61,9.24-5.4,12.65-5.47,3.06,0,6.21,3.41,13.65,6.8,5.23,2.39,9.03,7.38,13.23,7.38,1.88,0,3.39-.71,4.03-1.83.15.46.46,1.09,1.08,1.5,1.84,0,2.98-.81,4.39-.81.56,0,1.06.02,1.62.22,0,0,.63-.69,1.4-1.53.62-.03,1.19-.04,1.72-.05.39-.94.61-2.43.46-3.19ZM105.06,18.74l-.19,2.45h-.09c-1.6-1.34-4.69-2.55-6.38-.85-1.75.12-3.16,1-3.63,2.68h-.28c-.65-1.03.28-2.06,1.12-2.52-2.33-.32-1.92-7.01,1.89-6.26-.32.71.37,1.33.84,1.59,3.18-1.86,2.33,4.87,4.95,1.13.28-.12.7-.22,1.02-.22.43.5.79,1.34.75,2ZM97.67,25.27l-.47,1.59c-.7,0-1.53-.11-1.58-.94-.05-.73.46-1.24,1.12-1.59l1.12.47c-.08-3.37,4.32-1.24,5.15.06.27,1.02.22,1.88.08,2.85-1.41.03-3.24-.22-4.72-.74-.79-.39.6-1.51-.7-1.7ZM101.98,16.77c-.38-.84-.88-1.71-1.73-2.17l-1.62.3c-.1-.74.2-1.07,1.31-1.12,1.97-.08,3.25.31,3.55,1.41-.09.46-1.03,1.4-1.5,1.58ZM103.38,13.5v.06c-2.26-.95-3.93.2-6.56-.16v-.05c1.84-1.87,4.72-1.71,6.56.15ZM86.6,12.83c2.72-1.91,7.13-3.06,10.45-1.3,0,1.19-1.23,1.07-1.88,1.67h-.12l.22-.74c-1.03.18-2.43-.19-3.37-.66l-5.3,1.09v-.05ZM81.82,14.28c3.75-.27,6.63-.66,10.26-1.83v.47c-1.78.18-3.09,1.3-4.49,2.23l-5.77-.8v-.07ZM73.2,24.96c1.31-1.49,2.49-2.41,4.6-3.39-.57,3.08,3.02,4.32,3.28,7.18,2.34.82,2.88,3.7,5.35,2.29,3.73,7.58,11.96,2.92,17,7.42l-.02-.52c-4.38-3.98-12.56-2.26-16.35-7.2,1.3-.65,2.86-.53,4.8.13-2.34-3.61-8.04.73-9.71-3.39,2.43-.46,4.11-.18,6.35.48l.38-.47c-2.61-2.25-6.08-.29-8.69-2.54-2.24-2.16-1.67-5.8-.45-8.23,1.22-2.15,4.02-1.77,5.79-1.11.99,2.83,2.26,4.89,4.76,6.74-1.46-2.04-2.28-3.53-2.89-6.36l2.62-1.49c1.31.1,2.43.57,3.83.38-1.13,1.78.73,5.52-2.44,5.6,0,.39.23.73.65.94,2.15-.93.46,2.25,1.77,2.9.55,5.14,7.37,4.03,7.83,8.99-1.31-.38-2.61-1.87-3.83-1.13,2.89,1.51,5.78,3.94,7.65,6.75.8,1.28,1.91,3.11,2.75,4.94-.29-1.89-1.51-4.33-2.29-5.41-1.96-2.06-4.56-5.15-3.16-8.04l-.18-1.12c2.43-.65.92-3.25,1.97-5.79.4-.96,1.41-1.94,1.87-1.1,2.78,4.65,3.52,6.1,5.42,10.43-3.47,3.26,1.86,5.88,1.87,9.27.03,6.91,3.67,10.59,2.92,17.51.18,1.86,1.01,2.25.46,4.23-.95-1.25-.93-3.49-2.05-4.7-4.57-3.91-4.15-11.27-9.07-16.36-1.58-1.64-3.5-2.18-5.15-3.21l.62-.65c-1.74-.75-2.73-.82-4.76-1.79,1.4,2.43,4.2,3.19,6.35,4.69,7.02,4.77,5.17,11.4,10.5,17.12,1.24,1.33,1.5,2.03,1.34,2.83h-.09c-4.1-3.81-9.82-6.91-10.46-12.76-2.96-11.22-14.09-10.19-23-16.77-3.42-2.52-5.19-3.54-7.9-2.37-.66-1.63-.06-3.15-.25-4.93ZM87.77,36.9v.07c-3.26-.39-6.31-3.33-9.64-1.69-1.03.02-3.02-.58-3.92-.98.21-1.09.88-2.31,2.34-2.1,4.87.72,7.62,3.26,11.23,4.69ZM71.25,40.48l.36.05-1.05,5.58c-.56.23-1.38.42-1.91.4-.09-2.37,1.05-4.76,2.61-6.03ZM13.79,89.18c-6.51,0-10.71-1.79-10.71-4.46,0-4.76,11.55-7.35,19.47-8.86-.01.16-.02.32-.02.48,0,.92.12,1.85.31,2.78-2.02.33-10.55,1.84-15.46,4.18-.84.4-.48,1.53-.5,1.52,0,0,3.73,1.66,8.29,1.66,12.5,0,6.75-11.57,12.21-11.57,1.19,0,1.71,2.19,1.71,3.57,0,7.27-7.67,10.72-15.3,10.72ZM23.05,80.16c-.68,2.72-2.11,5.29-7.8,5.29-2.64,0-5.49-.71-7.03-1.4,4.21-1.56,10.78-3.31,14.84-3.89ZM81.6,75.96c-5.06,2.87-14.98,5.88-20.56,4.77-1.58-.32-3.46-1.06-4.37-1.66l-.47.47c1.31,1.16,2.63,1.9,3.95,2.32-4.31-.06-9.17-.13-13.78-.25.16-1.19-.03-2.19-.54-2.99,1.51.1,2.55.92,3.01,2.67h.13c.15-2.62-1.51-4.03-4.13-3.73-1.11-.83-2.72-1.28-4.69-1.31.12-1.63.88-2.94,2.22-4.32,2.91.1,5.45,2.63,7.94,5.24l.06-.06c-2.93-4.2-4.82-8.36-7.28-9.81h-1.59c-2.05-2.16-2.88-6.37-6.53-6.56-.38.01-.66.37-.66.75,4.58-.17,5.04,5.34,7.65,7.59-1.05-.06-1.97.14-2.9.93.97.19,1.9.55,2.43,1.13-1.82,3.01-4.97,5.4-7.44,5.95l-.07-.15c1.13-2.07,2.11-3.91,2.56-6.08-1.95,2.96-4.3,5.56-6.47,7.34-.09-1.35-.43-2.83-1.3-3.96-.4-.19-.88-.3-1.38-.3-2.57,0-3.29,1.5-3.74,3.42h-.12c0-.15-.01-.3-.01-.46,0-7.13,9.67-20.74,17.2-20.74,4.07,0,5.23,2.63,5.43,7.44.16,3.97.9,5.69,1.6,6.47-.78-2.52-1.1-4.57-1.01-7.53.07-2.42-.43-4.66-1.83-6.07.68-.57,2.08-1.65,3.63-2.4,5.57-2.7,11.97-2.6,17.93-5.21,1.51-.66,2.7-1.12,3.93-1.25l-.24,1.86c1.28,3.09,6.4,4.24,10.1,4.16.93,1.06,1.88,3.39,1.82,4.09-.83,5.1,2.62,9.51,4.7,12.5.16,1.44-1.93,3.73-5.17,5.76ZM92.97,69.09c-2.77-.02-4.08-.76-4.61-2.48,2.23.5,4.65.86,6.42.08-.32,1.02-.85,1.75-1.81,2.4ZM88.14,65.63c1.15-1.69,4.74-4.42,6.05-2.11.48.84.56,1.3.68,2.13-1.59.81-4.55.63-6.73-.02ZM132.83,82.49c-.32.22-1.15.5-2.03.5-1.32-1.02-.86-3.78-2.55-5.09-.36-.28-.68-.25-.98.03l-.24.26c1.28.73,2.09,2.77,1.33,3.66-2.46,2.36-5.74,1.43-9.2-1.69-2.34-2.25-4.78-3.5-7.05-7.35-.32,1.15-1.74,1.82-2.94,1.15-4.83-2.69-10.59-7.93-14.08-11.34-.1-.1-.19-.2-.31-.29-.01,0-.02-.02-.02-.02h0c-.83-.73-2.93-1.84-3.4-1.19-.89,1.43-4.46,3.53-5.79,3.36-.26-.14-.15-1.37.55-2.26,1.42-1.8,4.11-3.78,4.11-3.78-.84-2.29-3.91,1.08-9.9-6.94v-.93c1.16.1,2.47.08,2.63-.87-2.81.22-3.85-.46-4.58-4.27-1.15.68-.38,2.61.18,3.55-2.42,1.19-3.66-2.58-4-7.86-.56,3.68-.77,8.46,2.42,11.11v.11c-2.69-.42-4.47-1.22-5.77-3.06.58-4.71,1.5-9.11,2.71-13.76,3.75,1.65,5.59-.32,10.75,1.43,3.99,1.35,7.62,2.17,11.39,4.05,4.17,2.07,6.25,4.85,7.19,8.7,1.08,4.4,3.2,6.35,5.78,8.62,5.65,4.98,20.87,18.83,20.87,18.83,1.59,1.59,3.58,3.2,2.94,5.37ZM136.08,82.4c-.51-.13-1.57-.22-2.12-.12.35-2.21-.71-3.49-3.91-6,4.72,2.17,7.19,1.38,7.19,4.82-.38.52-.62.83-1.16,1.31ZM138.8,80.96l-.73.02c.14-4.48-5.44-3.4-9.1-6.1-2.95-2.24-6.3-5.57-9.76-8.78-.66-.61-.96-1.53-.78-2.4,7.22,6.3,10.27,12.75,18.84,12.98,1.87.75,2,2.7,1.53,4.29Z"/>
  </g>
  <g>
    <g>
      <polygon class="cls-2" points="139.78 128.81 1.99 128.81 1.99 127.78 139.78 127.78 139.78 128.81 139.78 128.81"/>
      <g>
        <path class="cls-2" d="M2.01,103.58h10.4c2.55,0,4.35.64,5.53,1.82.81.81,1.3,1.89,1.3,3.28v.05c0,2.35-1.33,3.74-3.13,4.52,2.46.81,4.03,2.2,4.03,4.96v.06c0,3.48-2.84,5.6-7.68,5.6H2.01v-20.28ZM11.03,111.66c1.71,0,2.67-.58,2.67-1.77v-.06c0-1.1-.87-1.74-2.55-1.74h-3.65v3.56h3.54ZM11.84,119.34c1.71,0,2.7-.66,2.7-1.86v-.05c0-1.1-.87-1.83-2.75-1.83h-4.29v3.74h4.35Z"/>
        <path class="cls-2" d="M22.67,103.58h16.31v4.78h-10.75v3.07h9.74v4.43h-9.74v3.22h10.89v4.78h-16.46v-20.28Z"/>
        <path class="cls-2" d="M41.94,103.58h5.62v15.35h9.82v4.93h-15.44v-20.28Z"/>
        <path class="cls-2" d="M59.73,103.58h16.23v4.92h-10.61v3.45h9.59v4.67h-9.59v7.25h-5.62v-20.28Z"/>
        <path class="cls-2" d="M77.75,113.77v-.05c0-5.83,4.7-10.55,10.96-10.55s10.89,4.66,10.89,10.49v.06c0,5.82-4.69,10.55-10.95,10.55s-10.9-4.67-10.9-10.5ZM93.87,113.77v-.05c0-2.93-2.11-5.48-5.21-5.48s-5.13,2.5-5.13,5.42v.06c0,2.92,2.11,5.47,5.19,5.47s5.16-2.49,5.16-5.42Z"/>
        <path class="cls-2" d="M102.47,103.58h9.59c3.1,0,5.25.81,6.61,2.2,1.19,1.16,1.79,2.72,1.79,4.72v.06c0,3.1-1.65,5.16-4.17,6.23l4.84,7.07h-6.49l-4.09-6.14h-2.47v6.14h-5.62v-20.28ZM111.81,113.31c1.91,0,3.01-.92,3.01-2.4v-.06c0-1.59-1.16-2.4-3.04-2.4h-3.68v4.87h3.71Z"/>
        <path class="cls-2" d="M128.21,108.5h-6.08v-4.92h17.8v4.92h-6.09v15.36h-5.63v-15.36Z"/>
      </g>
    </g>
    <g>
      <path class="cls-2" d="M66.42,100.64h-2.17l-4.52-11.27h2.72l2.93,7.88,2.93-7.88h2.65l-4.53,11.27Z"/>
      <path class="cls-2" d="M73.27,100.56v-11.19h2.46v11.19h-2.46Z"/>
      <path class="cls-2" d="M79,100.56v-11.19h2.46v8.95h5.58v2.24h-8.05Z"/>
      <path class="cls-2" d="M89.38,100.56v-11.19h2.47v8.95h5.58v2.24h-8.04Z"/>
      <path class="cls-2" d="M99.76,100.56v-11.19h8.44v2.19h-6v2.27h5.28v2.19h-5.28v2.35h6.08v2.19h-8.53Z"/>
      <path class="cls-2" d="M122.85,100.56h-4.36v-11.19h4.36c3.52,0,5.95,2.41,5.95,5.56v.03c0,3.15-2.43,5.6-5.95,5.6ZM126.23,94.96c0-1.98-1.36-3.37-3.38-3.37h-1.91v6.75h1.91c2.01,0,3.38-1.36,3.38-3.34v-.03Z"/>
      <path class="cls-2" d="M131.47,100.56v-11.19h8.44v2.19h-6v2.27h5.28v2.19h-5.28v2.35h6.08v2.19h-8.52Z"/>
    </g>
  </g>
</svg>