<?xml version="1.0" encoding="UTF-8"?>
<svg id="Calque_1" data-name="Calque 1" xmlns="http://www.w3.org/2000/svg" viewBox="0 0 141.73 141.73">
  <defs>
    <style>
      .cls-1 {
        fill: #a577a0;
      }

      .cls-2 {
        fill: #b495bc;
      }

      .cls-3 {
        fill: #c38d95;
      }

      .cls-4 {
        fill: #e5e5e5;
      }

      .cls-5 {
        fill: #c6c6c6;
      }

      .cls-6 {
        fill: #dadada;
      }

      .cls-7 {
        fill: #fff;
      }

      .cls-8 {
        fill: #f2dbb1;
      }

      .cls-9 {
        fill: #ab87b3;
      }

      .cls-10 {
        fill: #f0f0f0;
      }

      .cls-11 {
        fill: #d7977e;
      }

      .cls-12 {
        fill: #dadba5;
      }

      .cls-13 {
        fill: #8790be;
      }
    </style>
  </defs>
  <path class="cls-7" d="M81.22,74.13c1.19.05,1.18-.2,1.19.05.02,2.68-.03,8.93.02,11.55.17.24.13.63.17.97.01,1.59,1.95,2.54,3.38,2.71,1.26.54,2.9.29,4.29.23,2.62-.08,4.41-1.92,4.4-4.46.01-.38.12-.73.25-1.08.17-.44.1-1.29-.01-1.59-.04-.13-.14-.17-.24-.19-.26-.02-.93,0-1.62,0-.59.04-1.38-.07-1.8.05-.09.07-.13.28-.16.64-.06.61.08,1.56-.1,2.08-.27,1.26-1.9,1.52-2.99,1.22-.7-.14-1.11-.72-1.08-1.45-.2-.84-.14-1.76-.11-2.56.04-1.39-.04-3.18-.14-4.49-.17-2.18-.32-3.14.53-3.55,1.66-.61,4.79-.04,6.62-.27.09-.07.1-.16.13-.27.01-.48.04-1.61,0-2.27-.08-.8-.11-.57-.71-.61-1.79-.04-4.46.07-6.27-.04-.49-.25-.14-6.45-.21-7.53-.04-.17-.2-.17-.34-.07-1.22.98-2.5,1.91-3.62,3.09-.19.18-.38.34-.39.6-.01,1.08,0,2.7,0,3.78,0,.09,0,.13-.03.15-.24.04-8.27.02-10.69.01h-.01c-.2-1.49.41-6.23-.19-7.65-.46.14-1,.82-1.38,1.15-.61.52-.73.59-1.13.9-.45.35-1.03.91-1.55,1.22-.12.1-.15.22-.18.36-.01.41,0,1.82,0,2.86,0,.4,0,.74,0,.93,0,.19-.05.24-.28.24-.38,0-.96-.02-1.37,0-.43.03-.65.06-.69.22-.05.53-.03,1.95-.02,2.62,0,.2.07.27.32.32.24.05.67.06,1.06.05.53.04.9-.16.99.28.17,3.22-.64,10.77.98,13.78.93.98,2.25,1.2,3.5,1.56.68.04,2.42.04,3.41.02.51.03.63-.17,1.06-.3,2.63-.34,3.64-3.12,3.56-5.47-.03-.64.12-1.49-.35-1.59-.46-.03-2.07,0-2.78-.01-.32,0-.5-.02-.56.08-.11,1.27.2,3.69-1.68,3.91-.38.1-.77.21-1.17.08-.43-.13-.88-.12-1.11-.4-.17-.23-.16-.23-.23-.33-.1-.19-.17-.21-.2-.36,0-1.1,0-10.5,0-11.17l9.54.02Z"/>
  <path class="cls-7" d="M36.31,63.18c2.22,4.44,3.01,9.95,5,14.73.52,1.38.73,2.82,1.3,4.08.33.98.45,2.03,1.05,2.86.18.2.27.17.34,0,.68-2.08,6.51-20.06,7.06-21.74.12-.24.22-.15.67-.18,1.15.05,3.6-.09,4.39.06-1.64,5.37-8.22,25.27-8.52,26.24-.16.19-.31.07-.75.11-1.36,0-4.96,0-6.32,0-.54.01-.78-.22-.95-.8-2.48-8.22-5.42-16.12-7.79-24.46-.59-1.24.27-1.12,1.54-1.18.84.05,2.4-.1,2.93.25l.06.05Z"/>
  <path class="cls-7" d="M122.38,72.91c.34-.1.71-.76,1.05-1,1.24-1.14,3.22-1.52,4.84-1.22,3.12.49,3.95,3.06,3.73,5.93-.05.64.17,1.1-.39,1.22-.73.03-2.39.06-3.14-.01-.38-.06-.38-.49-.39-.83.06-1.35-.31-2.93-1.81-2.95-3.27-.36-4.22,1.68-4.07,4.58,0,3.03.01,9.5,0,10.37-.06.27-.24.23-.58.28-.64.07-2.05.06-2.83.05-.58-.04-.77.09-.81-.23,0-1.62,0-14.72,0-17.62.01-.37-.1-.67.36-.63.7.04,2.73-.11,3.52.07.57.35.14,1.53.48,1.98h.04Z"/>
  <path class="cls-7" d="M58.85,70.88c.59-.05,2.27,0,3.27-.01.24,0,.71.04.76.2,0,1.95.22,14.1,0,17.63-.02.22-.04.38-.06.47-.14.27-.68.1-1.12.15-.89,0-2.13.02-2.62-.03-.3-.04-.42-.05-.46-.28.05-1.63-.11-10.98-.07-14.24.06-2.16-.04-3.64.26-3.87h.04Z"/>
  <path class="cls-7" d="M134.86,89.29c-.22-3.36,0-15.67-.07-18.17.04-.17.14-.15.37-.2.62-.1,2.64-.08,3.51-.05.37.02.25.26.33.84.18,3.44-.02,15.79-.02,17.42-.04.06-.16.11-.42.14-.9.09-3.04.07-3.66.04h-.03Z"/>
  <path class="cls-6" d="M34.59,93.74c-15.21-5.07-26.97-18.37-31.25-33.6-3.59,6.53-3.8,14.96-2.87,22.5,5.6,5.63,13.45,9.43,21.42,10.48l-.03.13c3.36.65,11.22,1.59,12.72.49Z"/>
  <path class="cls-4" d="M24.47,39.11c-6.68,2.9-13.99,7.88-17.22,14.22.63,11.58,6.21,21.64,14.43,29.58.64.52,3.58,3.43,2.07,1.13-7.06-14.12-5.98-30.93.71-44.93Z"/>
  <path class="cls-5" d="M48.57,92.68c-7.21,3.37-16.15,5.03-24.41,4.36-3.73-.66-8.25-1.1-11.62-2.58-2.23.43-12-6.57-8.8-1.75,2.7,5.03,9.14,15.77,15.46,15.46,10.58-.64,24.8-7.89,29.36-15.49Z"/>
  <path class="cls-7" d="M62.93,63.28c.04,4.6.46,2.96-3.76,3.25-.47-.13.06-.36.1-.41"/>
  <path class="cls-13" d="M21.9,93.12s.15.17.36.2c.36.06.93-.08,1.22.02.14.05.13.27.24.3.38.1,1.08-.08,1.52,0,.23.04.42.25.74.29,1.07.16,3.24.17,4.43.21,1.53.05,3.05-.28,4.59-.21.01-.2-.29-.06-.44-.12-.14-.06-.21-.21-.35-.27-.13-.05-.32,0-.46-.05-.51-.19-1.23-.45-1.63-.79.25.08.66.05.86.12.16.06.17.27.35.37.08.04,1.17.42,1.24.43.16.04.61-.03.65,0,.04.04.01.28-.1.36-.21.14-1.23,0-1.6.05-2.79.4-5.66.1-8.46-.21-.88-.1-.83-.03-1.67-.29-.51-.16-1.94-.21-2.56-.33-.26-.05-1.04-.44-1.45-.51-.23-.04-.83.16-.77-.21,1.15.23,2.17.44,3.3.62Z"/>
  <path class="cls-10" d="M31.35,54.44c5.25-6.79,12.61-12.08,20.51-15.36.36-.16,1.02-.57.76-.86-3.58-2.14-16.25-3.38-20.04-1.36-8.22,8.51-11.47,21.47-10.5,33.13.15,1.42.58.7.9-.12,2.09-5.11,4.4-11.17,8.28-15.35l.08-.1Z"/>
  <path class="cls-7" d="M74.36,57.28c-3.64-8.48-12.51-17.87-22.11-13.1-.8.39-1.55.75-2.36.93-4.5,1.22-11.95,7.37-15.9,10.93-1.43,1.31-4.09,3.99-1.78,3.11,12.39-7.61,30.21-5.42,42.13-1.82l.02-.04Z"/>
  <path class="cls-8" d="M43.24,36.43c-1.61-.08-3.22-.12-4.85-.1-1.42.02-2.73.1-4.12.21-.27.02-.48.07-.72.1.39-.44,1.27-.1,1.8-.21.22-.04.28-.24.44-.29.83-.26,5.62-.23,6.68-.12.24.02.79.06.77.41Z"/>
  <path class="cls-1" d="M17.67,96.01c.35.05.85-.07,1.17,0,.48.11.77.11,1.25.21.23.05.29.26.52.31.44.09,1.11-.09,1.53,0,.08.02.03.19.22.21.62.08,1.41-.08,2.06,0,.17.02.43.04.37.3-.2-.01-.41.02-.62,0-.52-.04-1.13-.04-1.65-.1-.77-.09-1.87-.39-2.68-.52-.63-.1-1.59-.2-2.17-.41Z"/>
  <path class="cls-9" d="M21.69,82.92c.53.32.98.78,1.45,1.18.11.1.3.12.4.22.2.19.23.74.62.51-.02-.28-.47-.66-.5-.74-.06-.15.01-.33-.02-.45.25.44.64,1.05.8,1.52.04.13.06.31-.13.23-.24-.1-.75-.79-.98-.98-.68-.58-1.04-.88-1.65-1.49Z"/>
  <path class="cls-2" d="M1.69,64.16c-.1.37-.22.82-.3,1.19s.17.72-.42.87c.1-.48.37-1.03.49-1.41.08-.24-.14-.72.23-.65Z"/>
  <path class="cls-11" d="M3.44,90.85c-.14-.04-.38-.2-.52-.05,0,.1.17,0,.21.12.11.39.2.78.31,1.17-.35-.47-.58-.89-.62-1.49,0-.13.71-.1.62.26Z"/>
  <path class="cls-3" d="M12,70.14c.05,0,.15-.03.19.01.05.06.34.92.43,1.12-.49-.39-.41-.61-.62-1.13Z"/>
  <path class="cls-12" d="M50.66,44.99v.1c-.07.02-.21-.02-.34.02-.25.09-.43.45-.9.29.02-.03-.02-.19,0-.21.05-.04,1.05-.15,1.24-.21Z"/>
  <path class="cls-11" d="M3.75,92.71s.15-.04.19.01c.02.02.08.38.12.5-.45.08-.29-.15-.31-.52Z"/>
  <path class="cls-7" d="M113.99,75.39c-.71-3.64-2.92-4.25-6.23-4.72-3.56-.14-7.76-.37-9.97,2.8-.47.95-.73,2.39-.78,3.52-.09,4.1-1.06,10.98,3.92,12.1,3.48.99,8.6,1.15,11.55-1.22,1.07-.98,1.57-2.35,1.7-3.75.2-2.67.38-5.9-.17-8.63l-.02-.11ZM109.87,83.43c-.2.72-.47,1.83-1.19,2.32-1.71,1.02-4.26.93-6.02.15-.93-.48-1.03-1.79-1.23-2.59-.55-1.46-.38-3.11-.32-4.65,0-1.03.2-1.52.38-2.31.15-.94.71-1.8,1.63-2.13,1.81-.37,4.39-.7,5.86.55,1,1.31,1.06,2.58,1.05,4.22-.03,1.34.09,3.16-.14,4.37l-.02.09Z"/>
  <path class="cls-7" d="M139.03,63.21c.04,4.6.46,2.96-3.76,3.25-.47-.13.06-.36.1-.41"/>
</svg>