<?xml version="1.0" encoding="UTF-8"?>
<svg id="Calque_1" data-name="Calque 1" xmlns="http://www.w3.org/2000/svg" viewBox="0 0 141.73 141.73">
  <defs>
    <style>
      .cls-1 {
        fill: #fff;
      }
    </style>
  </defs>
  <path class="cls-1" d="M113.24,63.45c-4.49,0-8.14,2.75-8.14,6.13s3.65,6.13,8.14,6.13,8.32-2.75,8.32-6.13-3.73-6.13-8.32-6.13ZM113.24,73.72c-1.59,0-2.79-1.78-2.79-4.13,0-2.5,1.18-4.31,2.79-4.31s2.8,1.93,2.79,4.31c-.01,2.24-1.28,4.13-2.79,4.13ZM51.56,63.45c-4.49,0-8.15,2.75-8.15,6.13s3.66,6.13,8.15,6.13,8.32-2.75,8.32-6.13-3.73-6.13-8.32-6.13ZM51.56,73.72c-1.59,0-2.79-1.78-2.79-4.13,0-2.5,1.17-4.31,2.79-4.31s2.8,1.93,2.79,4.31c0,2.24-1.28,4.13-2.79,4.13ZM95.16,65.54h2.02l-3.54,6.9-4.04-6.9h2.86v-1.51h-11.45v1.51h2.69l5.21,9.76h6.23l5.22-9.76h2.69v-1.51h-7.9v1.51ZM32.81,65.69h2.07l-3.46,6.46-3.78-6.46h2.76v-1.81h-11.74v1.8h2.75l5.17,9.69.04.07h6.4l.04-.07,5.17-9.69h2.75v-1.8h-8.16v1.81ZM34.55,65.54h.52-.52ZM31.48,72.37l1.45-2.71-1.43,2.75-.03-.04ZM28.82,68.01l-1.43-2.37h.04l1.39,2.37ZM75.15,73.45h-2.87v-7.91h2.7v-1.51h-10.61v1.51h2.7v7.91h-2.7v1.85h16v-5.23h-1.68c-.08,1.89-1.64,3.38-3.54,3.38ZM115.22,18.95l-6.95,6.97c3.46,2.9,6.59,6.18,9.3,9.78l6.99-6.98,2.96-2.96c3.07,3.72,5.76,7.73,8.03,11.98h1.79V6.06h-31.65v1.79c4.39,2.34,8.52,5.13,12.34,8.32l-2.8,2.79Z"/>
  <path class="cls-1" d="M127.74,33.09l-7.11,7.11c17.07,27.67,8.49,63.93-19.18,81.01-27.67,17.07-63.93,8.49-81.01-19.18C3.37,74.36,11.96,38.09,39.62,21.02c19.73-12.18,44.77-11.64,63.95,1.37l7.04-7.05C79.83-6.77,36.94.26,14.83,31.05-7.28,61.84-.25,104.72,30.54,126.84c30.79,22.11,73.68,15.08,95.79-15.71,16.66-23.19,17.22-54.27,1.41-78.04Z"/>
</svg>